<?xml version="1.0" encoding="UTF-8"?>
<!DOCTYPE svg PUBLIC "-//W3C//DTD SVG 1.1//EN" "http://www.w3.org/Graphics/SVG/1.1/DTD/svg11.dtd">
<!-- Creator: CorelDRAW X8 -->
<svg xmlns="http://www.w3.org/2000/svg" xml:space="preserve" width="148mm" height="210mm" version="1.1" style="shape-rendering:geometricPrecision; text-rendering:geometricPrecision; image-rendering:optimizeQuality; fill-rule:evenodd; clip-rule:evenodd"
viewBox="0 0 14800 21000"
 xmlns:xlink="http://www.w3.org/1999/xlink">
 <defs>
  <style type="text/css">
   <![CDATA[
    .fil0 {fill:#FEFEFE}
    .fil1 {fill:#BD0202}
    .fil2 {fill:#FADFA8}
   ]]>
  </style>
 </defs>
 <g id="Слой_x0020_1">
  <metadata id="CorelCorpID_0Corel-Layer"/>
  <g id="_956793552">
   <path class="fil0" d="M10414 8688c-3,5 -6,12 -7,17 -72,173 -59,263 -296,411l-946 514c-87,50 -156,94 -236,138 -80,44 -184,71 -255,109l-149 0 -227 -100c-71,-32 -143,-70 -210,-103 -147,-72 -255,-135 -395,-210 -611,-331 -961,-355 -987,-833l-23 -1149c-4,-282 -17,-252 63,-507 -838,-3 -886,62 -1239,-540l-507 -783c-73,-108 -86,-171 -144,-277 -19,-48 -31,-84 0,-143 83,-181 101,-223 163,-330l537 -897c141,-251 221,-422 501,-471 328,-57 1284,-43 1682,-43 129,19 200,14 342,202 149,196 448,693 606,932 121,182 353,431 296,721 -34,173 -276,490 -363,660l83 41c34,12 58,18 94,31 254,94 825,422 1081,547 213,104 451,193 505,427 49,214 31,1327 31,1636z"/>
   <path class="fil1" d="M7817 3605c-69,-94 -627,-51 -1093,-53 -453,4 -757,-36 -944,223 -166,229 -448,753 -621,1037 -66,108 -240,339 -175,388 182,83 865,20 1126,16 422,-6 740,53 932,-203l619 -1038c48,-77 219,-285 156,-370z"/>
   <path class="fil1" d="M7693 6390c123,-27 314,-156 421,-217 502,-287 337,24 666,-556 312,-551 76,-557 -312,-1208l-361 -560c-52,-74 -57,-114 -151,-141 -126,68 -343,488 -431,638 -550,938 -609,797 -246,1394l414 650z"/>
   <path class="fil1" d="M7635 6445c-46,-134 -285,-458 -380,-603 -125,-190 -249,-462 -449,-538 -127,-49 -1213,-7 -1501,-4 -136,2 -375,-35 -352,118 12,77 314,513 376,606 507,767 426,908 1066,894 139,-3 367,26 468,-36l301 -178c-73,-76 -163,-191 -69,-301 83,-64 220,-26 308,18 153,76 68,85 232,24z"/>
   <path class="fil1" d="M8690 6107c-314,-107 -695,207 -901,322 -810,452 -1149,491 -625,735 142,66 262,141 411,214 260,129 555,321 829,423 283,105 745,-210 918,-321 623,-395 1229,-475 632,-746 -137,-62 -277,-143 -413,-212 -268,-137 -553,-314 -851,-415z"/>
   <path class="fil1" d="M8488 9751c100,-168 43,-782 38,-1031 -19,-945 44,-732 -947,-1265 -1032,-553 -841,-537 -818,666 3,175 2,360 12,534 21,395 412,455 932,737 137,75 647,374 783,359z"/>
   <path class="fil1" d="M10280 7090c-155,-25 -630,283 -771,366 -959,561 -938,317 -915,1324 3,173 -29,951 83,1002 82,38 645,-314 747,-371 463,-258 925,-401 921,-770 -2,-304 6,-1412 -65,-1551z"/>
   <path class="fil2" d="M9151 9278c-57,314 -474,400 -412,73 57,-306 482,-458 412,-73z"/>
   <path class="fil2" d="M8149 9032c268,73 385,576 76,495 -256,-68 -362,-573 -76,-495z"/>
   <path class="fil2" d="M10280 7090c-155,-25 -630,283 -771,366 -959,561 -938,317 -915,1324 3,173 -29,951 83,1002 82,38 645,-314 747,-371 463,-258 925,-401 921,-770 -2,-304 6,-1412 -65,-1551zm-1792 2661c100,-168 43,-782 38,-1031 -19,-945 44,-732 -947,-1265 -1032,-553 -841,-537 -818,666 3,175 2,360 12,534 21,395 412,455 932,737 137,75 647,373 783,359zm202 -3644c-314,-107 -695,207 -901,322 -810,452 -1149,491 -625,735 142,66 262,141 411,214 260,129 555,321 829,423 283,105 745,-210 918,-321 623,-395 1229,-475 632,-746 -137,-62 -277,-143 -413,-212 -268,-137 -553,-314 -851,-415zm-1055 338c-46,-134 -285,-458 -380,-603 -124,-190 -249,-462 -449,-538 -127,-49 -1213,-7 -1501,-4 -136,2 -375,-35 -352,118 12,77 314,513 376,606 507,767 426,908 1066,894 139,-3 367,26 468,-36l301 -178c-73,-76 -163,-191 -69,-301 83,-64 220,-26 308,18 153,76 68,85 232,24zm58 -55c123,-27 314,-156 421,-217 502,-287 337,24 666,-556 312,-551 76,-557 -312,-1208l-361 -560c-52,-74 -57,-114 -151,-141 -126,68 -343,488 -431,638 -550,938 -609,797 -246,1394l414 650zm124 -2785c-69,-94 -627,-51 -1093,-53 -453,4 -757,-36 -944,223 -166,229 -448,753 -621,1037 -66,108 -240,339 -175,388 182,83 865,20 1126,16 422,-6 740,53 932,-203l619 -1038c48,-77 219,-285 156,-370zm2597 5083c-3,5 -6,12 -7,17 -72,173 -59,263 -296,411l-946 514c-87,50 -156,94 -236,138 -80,44 -184,71 -255,109l-149 0 -227 -100c-71,-32 -143,-70 -210,-103 -147,-72 -255,-135 -395,-210 -611,-331 -961,-355 -987,-833l-23 -1149c-4,-282 -17,-252 63,-507 -838,-3 -886,62 -1239,-540l-507 -783c-73,-108 -86,-171 -144,-277 -19,-48 -31,-84 0,-143 83,-181 101,-223 163,-330l537 -897c141,-251 221,-422 501,-471 328,-57 1285,-43 1682,-43 129,19 200,14 342,202 149,196 448,693 606,932 121,182 353,431 296,721 -34,173 -276,490 -363,660l83 41c34,12 58,18 94,31 254,94 825,422 1081,547 213,104 451,193 505,427 49,214 31,1327 31,1636z"/>
   <path class="fil2" d="M7072 7341c117,49 194,110 229,255 34,138 -27,280 -204,211 -247,-97 -351,-602 -25,-466z"/>
   <path class="fil2" d="M10116 7316c222,88 -25,573 -264,491 -222,-76 36,-582 264,-491z"/>
   <path class="fil2" d="M8017 4983c249,85 172,615 -70,535 -225,-75 -164,-614 70,-535z"/>
   <path class="fil2" d="M5219 5627c-181,-290 335,-280 483,-31 171,290 -323,285 -483,31z"/>
   <path class="fil2" d="M7545 3716c221,160 -258,457 -436,346 -222,-140 219,-504 436,-346z"/>
   <path class="fil2" d="M6930 4705c249,132 -192,468 -415,370 -225,-99 178,-495 415,-370z"/>
   <path class="fil2" d="M6306 3732c231,154 -254,466 -437,349 -203,-130 216,-496 437,-349z"/>
   <path class="fil2" d="M8693 6802c365,111 65,400 -274,307 -317,-86 -115,-425 274,-307z"/>
   <path class="fil2" d="M5839 6611c-140,-295 404,-253 515,-8 138,307 -423,201 -515,8z"/>
   <path class="fil2" d="M6132 6066c-94,-281 457,-176 527,52 91,299 -447,186 -527,-52z"/>
   <path class="fil2" d="M6462 5611c-182,-289 335,-279 482,-30 171,290 -323,285 -482,30z"/>
   <path class="fil2" d="M5726 4923c181,-290 -336,-279 -483,-31 -171,290 323,285 483,31z"/>
   <path class="fil2" d="M9601 6763c364,111 65,400 -275,307 -317,-86 -115,-425 275,-307z"/>
   <path class="fil2" d="M7812 6821c364,111 64,400 -275,307 -317,-86 -115,-425 275,-307z"/>
   <path class="fil2" d="M7128 8443c268,73 385,576 76,495 -257,-68 -362,-573 -76,-495z"/>
   <path class="fil2" d="M8124 7929c118,49 194,111 229,256 34,138 -27,279 -204,210 -247,-97 -350,-602 -25,-466z"/>
  </g>
 </g>
</svg>
