<?xml version="1.0" encoding="UTF-8"?>
<!DOCTYPE svg PUBLIC "-//W3C//DTD SVG 1.1//EN" "http://www.w3.org/Graphics/SVG/1.1/DTD/svg11.dtd">
<!-- Creator: CorelDRAW X8 -->
<svg xmlns="http://www.w3.org/2000/svg" xml:space="preserve" width="210mm" height="297mm" version="1.1" style="shape-rendering:geometricPrecision; text-rendering:geometricPrecision; image-rendering:optimizeQuality; fill-rule:evenodd; clip-rule:evenodd"
viewBox="0 0 21000 29700"
 xmlns:xlink="http://www.w3.org/1999/xlink">
 <defs>
  <style type="text/css">
   <![CDATA[
    .str1 {stroke:#BD0202;stroke-width:8.47}
    .str0 {stroke:#BD0202;stroke-width:16.93}
    .fil7 {fill:none}
    .fil5 {fill:none;fill-rule:nonzero}
    .fil2 {fill:#733D18}
    .fil1 {fill:#BD0202}
    .fil8 {fill:#BD0202}
    .fil3 {fill:#FADFA8}
    .fil0 {fill:white}
    .fil4 {fill:#BD0202;fill-rule:nonzero}
    .fil6 {fill:#CC0202;fill-rule:nonzero}
   ]]>
  </style>
    <clipPath id="id0">
     <path d="M9856 5405c53,-42 106,-83 158,-125 122,-89 186,-172 191,-340 -3,-78 -3,-313 -1,-391 3,-121 -8,-200 -11,-273 -11,-27 -108,-694 -122,-705 -1,0 4,-1 4,-1 -2,1 -4,1 -5,2 -104,60 -226,123 -330,184 -143,84 -286,167 -430,251 -45,27 -91,53 -136,80 -88,55 -131,54 -122,187 7,144 14,288 21,431 16,339 33,677 49,1016 0,33 6,60 17,81 32,60 109,65 217,-3 48,-38 96,-76 144,-114 43,-33 86,-67 129,-101 0,0 1,-1 1,-1 76,-60 151,-119 226,-178z"/>
    </clipPath>
    <clipPath id="id1">
     <path d="M10136 5232c-76,-32 -5,-65 -9,-201 -7,-149 -17,-297 -21,-445 -13,-548 -22,-653 -40,-1012 22,-15 54,-3 94,5 221,47 442,94 664,141 234,50 469,100 704,150 7,2 54,12 60,14 90,22 59,68 59,167 0,179 0,358 0,537 0,293 0,446 0,739 -5,147 -41,199 -105,254 -25,30 -72,29 -157,-2 -64,-17 -129,-35 -193,-53 -123,-33 -246,-67 -368,-101 -123,-34 -246,-67 -368,-101 -89,-24 -177,-49 -265,-73 -21,-7 -39,-13 -55,-19z"/>
    </clipPath>
    <clipPath id="id2">
     <path d="M9220 5872c-89,-34 -98,-64 -103,-211 -8,-182 -17,-364 -25,-546 -14,-283 -27,-566 -40,-849 -4,-73 4,-101 35,-106 16,-2 36,1 64,7 358,89 717,178 1075,267 118,29 236,58 353,87 65,17 108,24 146,20 26,-4 49,-12 73,-27 146,-105 292,-210 438,-315 102,-73 203,-146 304,-219 69,-55 93,-76 105,-61 13,17 9,78 7,162 5,346 5,633 1,1027 -1,85 -2,154 -9,295 -5,105 -53,141 -122,200 -92,80 -36,30 -128,110 -152,132 -304,265 -457,398 -19,16 -139,120 -195,168 -28,22 -42,29 -55,32 -75,14 -484,-128 -568,-154 -285,-89 -625,-180 -899,-285z"/>
    </clipPath>
 </defs>
 <g id="Слой_x0020_1">
  <metadata id="CorelCorpID_0Corel-Layer"/>
  <g>
   <g style="clip-path:url(#id0)">
    <image x="9008" y="3528" width="1239" height="2362" xlink:href="ДВ 03_Images\ДВ 03_ImgID1.jpg"/>
   </g>
  </g>
  <g>
   <g style="clip-path:url(#id1)">
    <image x="10024" y="3525" width="1670" height="2120" xlink:href="ДВ 03_Images\ДВ 03_ImgID2.jpg"/>
   </g>
  </g>
  <path class="fil0" d="M9712 4737c1,1 2,4 3,5 20,53 16,80 84,126l270 157c25,15 44,29 67,42 23,13 53,22 73,33l42 0 65 -30c20,-10 41,-22 60,-32 42,-22 73,-41 112,-64 175,-101 275,-108 282,-255l7 -351c1,-86 5,-77 -18,-155 239,0 252,19 353,-164l145 -240c21,-33 24,-52 41,-85 5,-14 9,-25 0,-43 -24,-55 -29,-68 -47,-101l-153 -274c-40,-77 -63,-129 -143,-144 -93,-18 -366,-13 -480,-13 -36,6 -57,4 -97,62 -43,60 -128,211 -173,284 -34,56 -101,132 -84,221 9,53 78,149 103,201l-24 13c-9,4 -16,5 -26,9 -73,29 -236,129 -309,167 -61,32 -128,59 -144,131 -14,65 -9,406 -9,500z"/>
  <path class="fil1" d="M10453 3184c20,-29 179,-16 312,-17 129,2 216,-10 269,69 47,69 128,230 177,317 19,33 69,103 50,118 -52,25 -246,6 -321,5 -120,-2 -211,16 -266,-62l-176 -317c-14,-24 -63,-87 -45,-113z"/>
  <path class="fil1" d="M10489 4035c-36,-9 -90,-48 -120,-67 -144,-87 -97,8 -190,-169 -90,-169 -22,-171 88,-370l104 -171c14,-23 16,-35 43,-43 36,21 97,149 122,195 157,287 174,244 71,426l-118 199z"/>
  <path class="fil1" d="M10505 4051c13,-40 81,-139 109,-184 35,-58 71,-141 128,-164 36,-15 346,-2 428,-1 39,0 107,-11 100,36 -3,23 -90,156 -107,185 -145,234 -122,277 -304,273 -40,-1 -105,8 -134,-11l-85 -54c20,-24 46,-59 19,-92 -23,-20 -63,-8 -88,5 -43,23 -19,26 -66,7z"/>
  <path class="fil1" d="M10204 3948c90,-33 198,63 257,99 231,138 328,150 179,224 -41,20 -75,43 -118,66 -74,39 -158,98 -236,129 -81,32 -213,-64 -262,-98 -178,-121 -351,-146 -180,-228 39,-19 79,-44 117,-65 77,-42 158,-96 243,-127z"/>
  <path class="fil1" d="M10262 5062c-29,-52 -13,-239 -11,-315 5,-289 -13,-224 270,-387 294,-169 240,-164 233,204 -1,53 0,110 -3,163 -6,121 -118,139 -266,225 -39,23 -185,114 -223,110z"/>
  <path class="fil1" d="M9751 4249c44,-8 179,86 220,111 273,172 267,97 261,405 -1,53 8,291 -24,306 -24,12 -184,-96 -213,-113 -132,-79 -264,-123 -263,-236 1,-92 -2,-431 19,-473z"/>
  <path class="fil2" d="M10073 4917c16,96 135,123 117,22 -16,-93 -137,-140 -117,-22z"/>
  <path class="fil2" d="M10503 4585c-75,35 -88,184 1,143 68,-31 95,-188 -1,-143z"/>
  <path class="fil2" d="M10359 4842c-77,22 -110,176 -22,151 73,-21 103,-175 22,-151z"/>
  <path class="fil3" d="M9751 4249c44,-8 179,86 220,111 273,172 267,97 261,405 -1,53 8,291 -24,306 -24,12 -184,-96 -213,-113 -132,-79 -264,-123 -263,-236 1,-92 -2,-431 19,-473zm511 813c-29,-52 -13,-239 -11,-315 5,-289 -13,-224 270,-387 294,-169 240,-164 233,204 -1,53 0,110 -3,163 -6,121 -118,139 -266,225 -39,23 -185,114 -223,110zm-58 -1114c90,-33 198,63 257,99 231,138 328,150 179,224 -41,20 -75,43 -118,66 -74,39 -158,98 -236,129 -81,32 -213,-64 -262,-98 -178,-121 -351,-146 -180,-228 39,-19 79,-44 117,-65 77,-42 158,-96 243,-127zm301 103c13,-40 81,-139 109,-184 35,-58 71,-141 128,-164 36,-15 346,-2 428,-1 39,0 107,-11 100,36 -3,23 -90,156 -107,185 -145,234 -122,277 -304,273 -40,-1 -105,8 -134,-11l-85 -54c20,-24 46,-59 19,-92 -23,-20 -63,-8 -88,5 -43,23 -19,26 -66,7zm-16 -16c-36,-9 -90,-48 -120,-67 -144,-87 -97,8 -190,-169 -90,-169 -22,-171 88,-370l104 -171c14,-23 16,-35 43,-43 36,21 97,149 122,195 157,287 174,244 71,426l-118 199zm-36 -851c20,-29 179,-16 312,-17 129,2 216,-10 269,69 47,69 128,230 177,317 19,33 69,103 50,118 -52,25 -246,6 -321,5 -120,-2 -211,16 -266,-62l-176 -317c-14,-24 -63,-87 -45,-113zm-741 1553c1,1 2,4 3,5 20,53 16,80 84,126l270 157c25,15 44,29 67,42 23,13 53,22 73,33l42 0 65 -30c20,-10 41,-22 60,-32 42,-22 73,-41 112,-64 175,-101 275,-108 282,-255l7 -351c1,-86 5,-77 -18,-155 239,0 252,19 353,-164l145 -240c21,-33 24,-52 41,-85 5,-14 9,-25 0,-43 -24,-56 -29,-68 -47,-101l-153 -274c-40,-77 -63,-129 -143,-144 -93,-18 -366,-13 -480,-13 -36,6 -57,4 -97,62 -43,60 -128,211 -173,284 -34,56 -101,132 -84,221 9,53 78,149 103,201l-24 13c-9,4 -16,5 -26,9 -73,29 -236,129 -309,167 -61,32 -128,59 -144,131 -14,65 -9,406 -9,500z"/>
  <path class="fil3" d="M10666 4325c-34,15 -55,34 -66,78 -9,42 8,86 59,65 70,-30 100,-184 7,-143z"/>
  <path class="fil3" d="M9798 4317c-64,28 7,176 75,151 63,-23 -11,-178 -75,-151z"/>
  <path class="fil3" d="M10396 3605c-71,26 -49,188 20,163 64,-23 47,-187 -20,-163z"/>
  <path class="fil3" d="M11194 3801c52,-88 -95,-85 -137,-9 -49,89 92,87 137,9z"/>
  <path class="fil3" d="M10531 3218c-63,49 73,139 124,105 64,-42 -62,-154 -124,-105z"/>
  <path class="fil3" d="M10706 3520c-71,40 55,143 119,113 64,-30 -51,-152 -119,-113z"/>
  <path class="fil3" d="M10884 3222c-66,48 73,143 125,107 58,-40 -62,-151 -125,-107z"/>
  <path class="fil3" d="M10203 4161c-104,33 -18,122 79,93 90,-26 32,-130 -79,-93z"/>
  <path class="fil3" d="M11017 4102c40,-90 -115,-77 -147,-2 -39,93 121,61 147,2z"/>
  <path class="fil3" d="M10934 3936c27,-86 -130,-54 -150,16 -27,91 127,56 150,-16z"/>
  <path class="fil3" d="M10840 3797c52,-89 -96,-85 -138,-10 -49,89 92,88 138,10z"/>
  <path class="fil3" d="M11050 3586c-52,-88 95,-85 137,-9 49,88 -92,87 -137,9z"/>
  <g>
   <g style="clip-path:url(#id2)">
    <image x="9009" y="3872" width="2689" height="2482" xlink:href="ДВ 03_Images\ДВ 03_ImgID3.jpg"/>
   </g>
  </g>
  <path class="fil4" d="M8811 6908c0,61 -9,118 -28,171 -19,53 -44,100 -74,142 -31,42 -66,80 -106,112 -40,32 -82,59 -124,81 -43,22 -86,38 -129,49 -42,12 -81,17 -117,17 -27,0 -52,-1 -73,-4 -21,-3 -40,-5 -56,-9 -16,-3 -30,-5 -42,-8 -12,-3 -24,-4 -34,-4 -15,0 -28,1 -38,2 -10,2 -19,4 -27,7 -9,3 -17,7 -26,13 -8,5 -18,11 -31,18 -1,-1 -2,-3 -3,-6 -2,-3 -4,-6 -4,-9 0,-4 3,-9 7,-14 5,-4 11,-10 19,-17 8,-7 18,-15 28,-24 10,-9 21,-21 32,-35 16,-20 32,-45 47,-75 16,-30 29,-60 40,-89 8,-21 15,-44 23,-70 7,-27 14,-55 22,-85 8,-29 16,-61 24,-93 8,-33 16,-66 26,-99 19,-70 39,-130 61,-182 21,-52 49,-101 84,-147 -40,-4 -80,-3 -120,3 -40,6 -78,16 -115,30 -36,15 -70,33 -101,56 -31,22 -58,47 -81,75 -23,28 -41,59 -54,93 -13,33 -20,69 -20,107 0,25 5,44 13,57 9,13 19,22 31,26 -6,7 -14,14 -23,21 -9,7 -24,11 -44,11 -14,0 -26,-4 -35,-12 -9,-8 -15,-18 -20,-28 -5,-11 -8,-22 -9,-33 -2,-11 -3,-20 -3,-26 0,-28 5,-57 14,-85 9,-29 22,-53 37,-74 35,-48 75,-89 122,-123 46,-34 95,-61 146,-82 51,-22 102,-37 153,-46 52,-9 100,-13 144,-13l31 -32 33 -4c-2,2 -4,5 -7,9 -2,5 -5,9 -8,12 -3,5 -7,10 -11,15 14,0 34,2 61,6 26,3 55,10 87,20 31,10 63,24 96,42 33,18 63,42 90,72 27,30 49,66 66,108 18,43 26,94 26,153zm-92 70c0,-60 -6,-111 -18,-155 -13,-44 -29,-81 -49,-112 -21,-31 -44,-56 -69,-75 -26,-20 -52,-35 -79,-46 -26,-11 -52,-20 -77,-25 -26,-5 -48,-9 -67,-12 -5,7 -11,18 -17,33 -6,14 -13,30 -19,48 -7,18 -13,36 -19,55 -6,19 -11,35 -15,50 -17,55 -33,118 -47,188 -14,70 -34,143 -60,219 -8,22 -18,44 -30,67 -12,23 -25,46 -39,69 -15,22 -31,44 -47,65 -17,21 -33,40 -50,57 21,3 44,6 69,9 21,3 46,5 74,7 27,2 57,3 89,3 86,0 159,-14 219,-41 60,-27 109,-61 146,-104 37,-42 64,-90 80,-143 17,-52 25,-105 25,-157z"/>
  <path id="1" class="fil4" d="M9182 7378c0,6 1,12 3,17 2,5 6,8 12,8 6,0 10,-1 13,-2 3,-1 6,-3 11,-5 2,-1 3,-2 6,-3 2,-1 4,-1 7,-1 2,0 3,1 3,4 0,2 -1,5 -4,8 -7,6 -15,13 -25,20 -10,8 -20,15 -32,23 -12,8 -24,14 -35,18 -11,4 -21,6 -28,6 -8,0 -13,-4 -15,-10 -2,-7 -2,-14 -2,-21 0,-2 0,-8 2,-19 1,-11 4,-22 7,-32l106 -372 -27 0c-31,0 -56,3 -77,9 -21,6 -38,14 -51,24 -13,11 -22,23 -28,38 -6,14 -8,31 -8,49 0,20 4,36 13,47 10,12 20,20 33,26 13,6 26,10 39,12 14,2 25,3 33,3l-3 10c-29,8 -54,20 -75,36 -22,17 -43,37 -63,61 -15,16 -29,32 -43,49 -13,16 -26,31 -40,44 -13,14 -27,25 -42,33 -15,8 -32,12 -49,12 -13,0 -24,-3 -33,-9 -9,-6 -18,-14 -26,-25 22,-3 41,-11 58,-24 17,-13 34,-27 48,-43 15,-16 31,-31 48,-47 50,-46 99,-74 148,-86l1 -3c-6,0 -16,-2 -30,-4 -13,-2 -27,-7 -40,-14 -14,-7 -26,-17 -37,-30 -10,-13 -15,-30 -15,-52 0,-24 7,-44 20,-61 14,-17 33,-32 56,-44 23,-13 49,-22 79,-28 29,-6 60,-9 91,-9l99 0 -104 353c-1,5 -2,11 -3,18 -1,6 -1,12 -1,16z"/>
  <path id="2" class="fil4" d="M9687 6984c6,0 8,3 8,10 0,2 0,4 -1,6 -1,2 -3,4 -7,4 -14,0 -30,3 -49,9 -19,6 -39,15 -60,27 -21,13 -42,28 -62,45 -21,18 -40,38 -56,61 -17,23 -30,49 -40,77 -10,29 -15,60 -15,93 0,29 6,54 17,74 11,19 30,29 57,29 32,0 64,-16 94,-48 31,-32 57,-75 80,-129 23,-56 40,-112 50,-166 11,-55 16,-111 16,-167 0,-98 -12,-172 -38,-223 -26,-51 -62,-76 -109,-76 -18,0 -33,2 -48,7 -14,5 -27,11 -38,18 -11,7 -20,14 -27,22 -8,7 -13,12 -16,16 -1,2 -3,4 -4,6 -2,2 -4,3 -6,3 -5,0 -7,-1 -7,-4 0,-4 2,-9 7,-16 18,-24 43,-46 75,-65 32,-19 69,-29 110,-29 55,0 97,26 128,76 32,50 47,122 47,215 0,148 -40,288 -121,420 -40,65 -79,114 -118,146 -39,33 -83,49 -132,49 -30,0 -53,-11 -67,-34 -14,-23 -21,-50 -21,-80 0,-26 3,-53 10,-81 7,-27 19,-55 35,-83 19,-35 42,-65 69,-92 27,-26 54,-48 83,-66 28,-18 56,-31 83,-40 27,-9 52,-14 73,-14z"/>
  <path id="3" class="fil4" d="M10117 7378c0,6 1,12 2,17 2,5 6,8 13,8 6,0 10,-1 13,-2 2,-1 6,-3 11,-5 1,-1 3,-2 5,-3 3,-1 5,-1 7,-1 3,0 4,1 4,4 0,2 -2,5 -5,8 -6,6 -14,13 -24,20 -10,8 -21,15 -32,23 -12,8 -24,14 -35,18 -11,4 -21,6 -28,6 -8,0 -13,-4 -15,-10 -2,-7 -3,-14 -3,-21 0,-2 1,-8 3,-19 1,-11 3,-22 6,-32l106 -372 -26 0c-31,0 -57,3 -77,9 -21,6 -38,14 -51,24 -13,11 -22,23 -28,38 -6,14 -9,31 -9,49 0,20 5,36 14,47 9,12 20,20 33,26 13,6 26,10 39,12 13,2 24,3 33,3l-4 10c-28,8 -53,20 -74,36 -22,17 -43,37 -64,61 -14,16 -28,32 -42,49 -13,16 -27,31 -40,44 -13,14 -28,25 -43,33 -15,8 -31,12 -49,12 -13,0 -24,-3 -32,-9 -9,-6 -18,-14 -26,-25 22,-3 41,-11 57,-24 18,-13 34,-27 49,-43 15,-16 31,-31 48,-47 50,-46 99,-74 147,-86l1 -3c-6,0 -15,-2 -29,-4 -13,-2 -27,-7 -41,-14 -14,-7 -26,-17 -36,-30 -10,-13 -16,-30 -16,-52 0,-24 7,-44 21,-61 14,-17 32,-32 55,-44 23,-13 50,-22 79,-28 30,-6 60,-9 92,-9l99 0 -104 353c-1,5 -2,11 -3,18 -1,6 -1,12 -1,16z"/>
  <path id="4" class="fil4" d="M11729 7097c0,57 -13,108 -38,155 -26,47 -58,87 -98,121 -39,33 -82,59 -129,77 -47,19 -91,28 -132,28 -20,0 -39,-2 -57,-7 -18,-4 -34,-11 -48,-20 -13,-9 -24,-21 -32,-34 -8,-14 -12,-30 -12,-49 0,-25 5,-48 17,-69 11,-21 25,-39 41,-55 16,-15 33,-28 49,-38 17,-10 30,-17 41,-21l2 7c-26,16 -44,35 -55,58 -12,24 -17,46 -17,68 0,41 12,70 38,87 25,18 60,27 106,27 34,0 66,-8 96,-24 29,-16 55,-38 76,-64 22,-27 39,-57 51,-91 12,-34 18,-69 18,-105 0,-39 -5,-72 -15,-97 -10,-25 -23,-46 -39,-61 -16,-15 -33,-25 -53,-31 -19,-6 -38,-9 -56,-10 -8,0 -17,3 -28,9 -11,5 -23,11 -35,18 -13,7 -25,13 -38,19 -13,6 -26,9 -38,9 -12,0 -18,-4 -19,-11 -1,-7 -2,-12 -2,-16 0,-13 8,-24 24,-32 15,-8 34,-15 57,-21 16,-4 32,-7 50,-9 17,-2 33,-8 49,-16 34,-19 61,-44 80,-75 18,-31 28,-68 28,-111 0,-26 -6,-50 -19,-69 -12,-20 -28,-36 -47,-49 -20,-13 -42,-23 -67,-29 -24,-6 -49,-9 -74,-9 -20,21 -38,53 -54,94 -16,41 -30,85 -43,132 -12,47 -24,95 -34,142 -10,48 -21,89 -31,123 -3,14 -9,32 -16,53 -7,21 -16,44 -27,69 -11,25 -24,51 -39,78 -16,27 -34,54 -55,79 -16,20 -33,39 -52,57 -19,18 -39,34 -59,48 -21,14 -43,25 -66,33 -23,8 -46,12 -70,12 -42,0 -72,-12 -92,-34 -20,-23 -30,-50 -30,-83 0,-39 14,-77 44,-113 29,-36 71,-62 126,-80l4 7c-11,5 -22,12 -33,21 -10,9 -20,19 -29,31 -9,12 -16,26 -21,42 -6,15 -8,33 -8,51 0,34 10,59 29,75 20,16 44,24 72,24 37,0 68,-11 95,-32 26,-21 49,-48 67,-82 12,-23 23,-49 33,-77 9,-29 18,-59 26,-90 7,-32 15,-65 22,-98 7,-34 15,-67 24,-101 8,-36 17,-72 27,-108 10,-35 22,-70 34,-103 13,-33 27,-63 42,-92 16,-28 33,-54 53,-76 -13,1 -29,3 -49,5 -19,3 -40,7 -62,13 -23,6 -45,13 -68,23 -22,9 -43,20 -61,33 -31,21 -52,45 -64,70 -13,25 -19,49 -19,71 0,10 2,18 7,26 4,8 10,15 17,21 8,6 17,10 27,12 10,3 22,3 34,1 -20,27 -37,45 -52,53 -15,8 -32,12 -50,12 -12,0 -22,-3 -30,-8 -8,-6 -15,-13 -21,-21 -5,-8 -9,-18 -11,-28 -2,-10 -4,-19 -4,-28 0,-14 4,-29 10,-46 7,-16 17,-34 32,-52 14,-19 33,-38 57,-58 24,-21 53,-42 88,-63 20,-12 44,-24 70,-35 27,-10 55,-20 85,-27 30,-8 60,-14 92,-18 32,-4 63,-6 93,-6 32,0 62,3 90,10 28,7 52,17 73,30 21,13 37,29 49,48 12,19 18,41 18,66 0,31 -6,59 -16,84 -10,26 -23,49 -38,69 -16,20 -32,37 -51,52 -18,14 -36,25 -53,33 24,1 48,5 71,13 23,7 44,19 62,35 18,16 33,36 44,60 11,24 16,53 16,88z"/>
  <path id="5" class="fil4" d="M12109 7385c0,6 2,10 6,11 4,2 8,2 13,2 6,0 10,0 13,-1 3,-1 6,-3 11,-5 1,-1 3,-2 6,-3 2,-2 4,-2 6,-2 3,0 4,1 4,5 0,2 -2,4 -5,8 -12,12 -29,25 -51,40 -13,8 -24,15 -34,19 -10,5 -19,7 -26,7 -6,0 -12,-1 -18,-5 -6,-3 -9,-10 -9,-21 0,-6 1,-13 2,-21l95 -345c1,-10 1,-20 -1,-30 -3,-10 -12,-15 -28,-15 -8,0 -19,4 -32,12 -13,8 -27,19 -42,32 -15,13 -31,28 -47,45 -16,16 -31,34 -45,51 -10,14 -22,30 -34,49 -12,19 -22,38 -32,58 -9,20 -17,40 -23,60 -7,20 -10,39 -10,56 0,8 2,14 4,19 3,4 6,6 10,6 4,0 6,0 7,-1 1,0 3,-1 6,-3 -2,6 -6,12 -12,18 -5,7 -11,13 -18,18 -7,5 -14,10 -21,14 -8,4 -14,6 -19,6 -11,0 -19,-4 -24,-10 -5,-7 -7,-20 -6,-41 0,-21 5,-43 15,-67 9,-24 21,-48 36,-73 16,-25 33,-50 53,-75 20,-26 41,-50 64,-73 18,-19 38,-38 58,-56 20,-19 40,-35 60,-49 20,-13 39,-25 58,-34 18,-8 35,-14 51,-15 13,-1 23,0 31,3 7,3 13,8 17,14 4,5 6,12 6,20 1,7 0,15 -3,23l-85 312c-3,11 -5,18 -6,22 0,4 -1,9 -1,15z"/>
  <path id="6" class="fil4" d="M12600 7080c0,-12 -3,-21 -7,-29 -5,-7 -10,-13 -17,-17 -7,-4 -14,-7 -21,-9 -8,-1 -15,-2 -21,-2 -27,0 -50,6 -70,17 -19,12 -37,27 -52,45 -18,22 -33,45 -45,70 -11,25 -20,49 -27,72 -6,23 -11,44 -13,63 -3,19 -4,34 -4,44 0,22 3,40 9,52 6,13 15,19 27,19 12,0 25,-4 41,-12 16,-9 32,-20 49,-34 17,-14 33,-29 49,-47 15,-18 29,-35 41,-53 7,-11 15,-25 23,-42 7,-16 14,-33 19,-50 6,-17 10,-33 13,-49 4,-16 6,-28 6,-38zm-7 297c0,6 1,11 3,17 2,5 6,8 12,8 6,0 10,-1 13,-2 3,-1 6,-3 11,-5 1,-1 3,-2 6,-3 2,-1 4,-2 7,-2 2,0 3,2 3,5 0,2 -2,5 -5,8 -12,12 -29,26 -51,40 -13,9 -24,15 -34,20 -10,4 -19,7 -26,7 -8,0 -14,-3 -17,-8 -3,-6 -5,-15 -5,-28 0,-7 2,-18 6,-34 3,-16 8,-32 13,-49 6,-19 12,-40 20,-62l-5 0c-7,8 -19,23 -36,43 -18,20 -38,40 -60,60 -22,20 -44,38 -68,54 -24,16 -45,24 -64,24 -17,0 -32,-8 -45,-24 -13,-17 -19,-42 -19,-76 0,-53 11,-104 34,-155 23,-50 53,-96 91,-135 30,-31 62,-55 99,-73 36,-18 71,-26 104,-26 18,0 33,1 46,4 13,3 24,9 31,17 10,-7 20,-12 28,-15 9,-2 19,-2 29,-1 -5,13 -10,27 -15,41 -5,14 -10,30 -16,46 -10,26 -19,55 -30,88 -10,32 -20,63 -29,93 -8,29 -16,56 -22,78 -6,23 -9,38 -9,45z"/>
  <path id="7" class="fil4" d="M13148 6997c7,0 11,0 11,1 0,2 -2,5 -7,8 -4,4 -10,8 -18,12 -7,4 -15,8 -23,12 -8,4 -16,7 -23,9 -8,3 -14,4 -20,4 -11,0 -23,-4 -35,-10 -12,-7 -22,-10 -30,-10 -15,0 -31,4 -48,11 -18,7 -35,22 -54,44 -14,17 -25,35 -35,55 -10,19 -19,38 -25,57 -7,19 -12,37 -15,55 -3,17 -4,32 -4,45 0,39 7,70 21,95 14,25 39,38 75,38 22,0 44,-5 66,-14 22,-8 48,-23 77,-43 3,-1 6,-3 8,-6 3,-2 6,-3 10,-3 3,0 4,2 4,5 0,3 -2,6 -7,11 -12,12 -26,23 -41,36 -16,12 -32,23 -51,33 -18,10 -38,18 -60,24 -21,6 -44,10 -69,10 -40,0 -68,-13 -85,-39 -17,-26 -25,-57 -25,-94 0,-30 4,-60 13,-89 9,-30 21,-58 36,-85 15,-27 32,-51 53,-74 21,-24 43,-44 68,-61 20,-14 43,-27 69,-38 25,-12 50,-18 73,-18 11,0 25,3 42,9 17,7 33,10 49,10z"/>
  <path id="8" class="fil5 str0" d="M8811 6908c0,61 -9,118 -28,171 -19,53 -44,100 -74,142 -31,42 -66,80 -106,112 -40,32 -82,59 -124,81 -43,22 -86,38 -129,49 -42,12 -81,17 -117,17 -27,0 -52,-1 -73,-4 -21,-3 -40,-5 -56,-9 -16,-3 -30,-5 -42,-8 -12,-3 -24,-4 -34,-4 -15,0 -28,1 -38,2 -10,2 -19,4 -27,7 -9,3 -17,7 -26,13 -8,5 -18,11 -31,18 -1,-1 -2,-3 -3,-6 -2,-3 -4,-6 -4,-9 0,-4 3,-9 7,-14 5,-4 11,-10 19,-17 8,-7 18,-15 28,-24 10,-9 21,-21 32,-35 16,-20 32,-45 47,-75 16,-30 29,-60 40,-89 8,-21 15,-44 23,-70 7,-27 14,-55 22,-85 8,-29 16,-61 24,-93 8,-33 16,-66 26,-99 19,-70 39,-130 61,-182 21,-52 49,-101 84,-147 -40,-4 -80,-3 -120,3 -40,6 -78,16 -115,30 -36,15 -70,33 -101,56 -31,22 -58,47 -81,75 -23,28 -41,59 -54,93 -13,33 -20,69 -20,107 0,25 5,44 13,57 9,13 19,22 31,26 -6,7 -14,14 -23,21 -9,7 -24,11 -44,11 -14,0 -26,-4 -35,-12 -9,-8 -15,-18 -20,-28 -5,-11 -8,-22 -9,-33 -2,-11 -3,-20 -3,-26 0,-28 5,-57 14,-85 9,-29 22,-53 37,-74 35,-48 75,-89 122,-123 46,-34 95,-61 146,-82 51,-22 102,-37 153,-46 52,-9 100,-13 144,-13l31 -32 33 -4c-2,2 -4,5 -7,9 -2,5 -5,9 -8,12 -3,5 -7,10 -11,15 14,0 34,2 61,6 26,3 55,10 87,20 31,10 63,24 96,42 33,18 63,42 90,72 27,30 49,66 66,108 18,43 26,94 26,153zm-92 70c0,-60 -6,-111 -18,-155 -13,-44 -29,-81 -49,-112 -21,-31 -44,-56 -69,-75 -26,-20 -52,-35 -79,-46 -26,-11 -52,-20 -77,-25 -26,-5 -48,-9 -67,-12 -5,7 -11,18 -17,33 -6,14 -13,30 -19,48 -7,18 -13,36 -19,55 -6,19 -11,35 -15,50 -17,55 -33,118 -47,188 -14,70 -34,143 -60,219 -8,22 -18,44 -30,67 -12,23 -25,46 -39,69 -15,22 -31,44 -47,65 -17,21 -33,40 -50,57 21,3 44,6 69,9 21,3 46,5 74,7 27,2 57,3 89,3 86,0 159,-14 219,-41 60,-27 109,-61 146,-104 37,-42 64,-90 80,-143 17,-52 25,-105 25,-157z"/>
  <path id="9" class="fil5 str0" d="M9182 7378c0,6 1,12 3,17 2,5 6,8 12,8 6,0 10,-1 13,-2 3,-1 6,-3 11,-5 2,-1 3,-2 6,-3 2,-1 4,-1 7,-1 2,0 3,1 3,4 0,2 -1,5 -4,8 -7,6 -15,13 -25,20 -10,8 -20,15 -32,23 -12,8 -24,14 -35,18 -11,4 -21,6 -28,6 -8,0 -13,-4 -15,-10 -2,-7 -2,-14 -2,-21 0,-2 0,-8 2,-19 1,-11 4,-22 7,-32l106 -372 -27 0c-31,0 -56,3 -77,9 -21,6 -38,14 -51,24 -13,11 -22,23 -28,38 -6,14 -8,31 -8,49 0,20 4,36 13,47 10,12 20,20 33,26 13,6 26,10 39,12 14,2 25,3 33,3l-3 10c-29,8 -54,20 -75,36 -22,17 -43,37 -63,61 -15,16 -29,32 -43,49 -13,16 -26,31 -40,44 -13,14 -27,25 -42,33 -15,8 -32,12 -49,12 -13,0 -24,-3 -33,-9 -9,-6 -18,-14 -26,-25 22,-3 41,-11 58,-24 17,-13 34,-27 48,-43 15,-16 31,-31 48,-47 50,-46 99,-74 148,-86l1 -3c-6,0 -16,-2 -30,-4 -13,-2 -27,-7 -40,-14 -14,-7 -26,-17 -37,-30 -10,-13 -15,-30 -15,-52 0,-24 7,-44 20,-61 14,-17 33,-32 56,-44 23,-13 49,-22 79,-28 29,-6 60,-9 91,-9l99 0 -104 353c-1,5 -2,11 -3,18 -1,6 -1,12 -1,16z"/>
  <path id="10" class="fil5 str0" d="M9687 6984c6,0 8,3 8,10 0,2 0,4 -1,6 -1,2 -3,4 -7,4 -14,0 -30,3 -49,9 -19,6 -39,15 -60,27 -21,13 -42,28 -62,45 -21,18 -40,38 -56,61 -17,23 -30,49 -40,77 -10,29 -15,60 -15,93 0,29 6,54 17,74 11,19 30,29 57,29 32,0 64,-16 94,-48 31,-32 57,-75 80,-129 23,-56 40,-112 50,-166 11,-55 16,-111 16,-167 0,-98 -12,-172 -38,-223 -26,-51 -62,-76 -109,-76 -18,0 -33,2 -48,7 -14,5 -27,11 -38,18 -11,7 -20,14 -27,22 -8,7 -13,12 -16,16 -1,2 -3,4 -4,6 -2,2 -4,3 -6,3 -5,0 -7,-1 -7,-4 0,-4 2,-9 7,-16 18,-24 43,-46 75,-65 32,-19 69,-29 110,-29 55,0 97,26 128,76 32,50 47,122 47,215 0,148 -40,288 -121,420 -40,65 -79,114 -118,146 -39,33 -83,49 -132,49 -30,0 -53,-11 -67,-34 -14,-23 -21,-50 -21,-80 0,-26 3,-53 10,-81 7,-27 19,-55 35,-83 19,-35 42,-65 69,-92 27,-26 54,-48 83,-66 28,-18 56,-31 83,-40 27,-9 52,-14 73,-14z"/>
  <path id="11" class="fil5 str0" d="M10117 7378c0,6 1,12 2,17 2,5 6,8 13,8 6,0 10,-1 13,-2 2,-1 6,-3 11,-5 1,-1 3,-2 5,-3 3,-1 5,-1 7,-1 3,0 4,1 4,4 0,2 -2,5 -5,8 -6,6 -14,13 -24,20 -10,8 -21,15 -32,23 -12,8 -24,14 -35,18 -11,4 -21,6 -28,6 -8,0 -13,-4 -15,-10 -2,-7 -3,-14 -3,-21 0,-2 1,-8 3,-19 1,-11 3,-22 6,-32l106 -372 -26 0c-31,0 -57,3 -77,9 -21,6 -38,14 -51,24 -13,11 -22,23 -28,38 -6,14 -9,31 -9,49 0,20 5,36 14,47 9,12 20,20 33,26 13,6 26,10 39,12 13,2 24,3 33,3l-4 10c-28,8 -53,20 -74,36 -22,17 -43,37 -64,61 -14,16 -28,32 -42,49 -13,16 -27,31 -40,44 -13,14 -28,25 -43,33 -15,8 -31,12 -49,12 -13,0 -24,-3 -32,-9 -9,-6 -18,-14 -26,-25 22,-3 41,-11 57,-24 18,-13 34,-27 49,-43 15,-16 31,-31 48,-47 50,-46 99,-74 147,-86l1 -3c-6,0 -15,-2 -29,-4 -13,-2 -27,-7 -41,-14 -14,-7 -26,-17 -36,-30 -10,-13 -16,-30 -16,-52 0,-24 7,-44 21,-61 14,-17 32,-32 55,-44 23,-13 50,-22 79,-28 30,-6 60,-9 92,-9l99 0 -104 353c-1,5 -2,11 -3,18 -1,6 -1,12 -1,16z"/>
  <path id="12" class="fil5 str0" d="M11729 7097c0,57 -13,108 -38,155 -26,47 -58,87 -98,121 -39,33 -82,59 -129,77 -47,19 -91,28 -132,28 -20,0 -39,-2 -57,-7 -18,-4 -34,-11 -48,-20 -13,-9 -24,-21 -32,-34 -8,-14 -12,-30 -12,-49 0,-25 5,-48 17,-69 11,-21 25,-39 41,-55 16,-15 33,-28 49,-38 17,-10 30,-17 41,-21l2 7c-26,16 -44,35 -55,58 -12,24 -17,46 -17,68 0,41 12,70 38,87 25,18 60,27 106,27 34,0 66,-8 96,-24 29,-16 55,-38 76,-64 22,-27 39,-57 51,-91 12,-34 18,-69 18,-105 0,-39 -5,-72 -15,-97 -10,-25 -23,-46 -39,-61 -16,-15 -33,-25 -53,-31 -19,-6 -38,-9 -56,-10 -8,0 -17,3 -28,9 -11,5 -23,11 -35,18 -13,7 -25,13 -38,19 -13,6 -26,9 -38,9 -12,0 -18,-4 -19,-11 -1,-7 -2,-12 -2,-16 0,-13 8,-24 24,-32 15,-8 34,-15 57,-21 16,-4 32,-7 50,-9 17,-2 33,-8 49,-16 34,-19 61,-44 80,-75 18,-31 28,-68 28,-111 0,-26 -6,-50 -19,-69 -12,-20 -28,-36 -47,-49 -20,-13 -42,-23 -67,-29 -24,-6 -49,-9 -74,-9 -20,21 -38,53 -54,94 -16,41 -30,85 -43,132 -12,47 -24,95 -34,142 -10,48 -21,89 -31,123 -3,14 -9,32 -16,53 -7,21 -16,44 -27,69 -11,25 -24,51 -39,78 -16,27 -34,54 -55,79 -16,20 -33,39 -52,57 -19,18 -39,34 -59,48 -21,14 -43,25 -66,33 -23,8 -46,12 -70,12 -42,0 -72,-12 -92,-34 -20,-23 -30,-50 -30,-83 0,-39 14,-77 44,-113 29,-36 71,-62 126,-80l4 7c-11,5 -22,12 -33,21 -10,9 -20,19 -29,31 -9,12 -16,26 -21,42 -6,15 -8,33 -8,51 0,34 10,59 29,75 20,16 44,24 72,24 37,0 68,-11 95,-32 26,-21 49,-48 67,-82 12,-23 23,-49 33,-77 9,-29 18,-59 26,-90 7,-32 15,-65 22,-98 7,-34 15,-67 24,-101 8,-36 17,-72 27,-108 10,-35 22,-70 34,-103 13,-33 27,-63 42,-92 16,-28 33,-54 53,-76 -13,1 -29,3 -49,5 -19,3 -40,7 -62,13 -23,6 -45,13 -68,23 -22,9 -43,20 -61,33 -31,21 -52,45 -64,70 -13,25 -19,49 -19,71 0,10 2,18 7,26 4,8 10,15 17,21 8,6 17,10 27,12 10,3 22,3 34,1 -20,27 -37,45 -52,53 -15,8 -32,12 -50,12 -12,0 -22,-3 -30,-8 -8,-6 -15,-13 -21,-21 -5,-8 -9,-18 -11,-28 -2,-10 -4,-19 -4,-28 0,-14 4,-29 10,-46 7,-16 17,-34 32,-52 14,-19 33,-38 57,-58 24,-21 53,-42 88,-63 20,-12 44,-24 70,-35 27,-10 55,-20 85,-27 30,-8 60,-14 92,-18 32,-4 63,-6 93,-6 32,0 62,3 90,10 28,7 52,17 73,30 21,13 37,29 49,48 12,19 18,41 18,66 0,31 -6,59 -16,84 -10,26 -23,49 -38,69 -16,20 -32,37 -51,52 -18,14 -36,25 -53,33 24,1 48,5 71,13 23,7 44,19 62,35 18,16 33,36 44,60 11,24 16,53 16,88z"/>
  <path id="13" class="fil5 str0" d="M12109 7385c0,6 2,10 6,11 4,2 8,2 13,2 6,0 10,0 13,-1 3,-1 6,-3 11,-5 1,-1 3,-2 6,-3 2,-2 4,-2 6,-2 3,0 4,1 4,5 0,2 -2,4 -5,8 -12,12 -29,25 -51,40 -13,8 -24,15 -34,19 -10,5 -19,7 -26,7 -6,0 -12,-1 -18,-5 -6,-3 -9,-10 -9,-21 0,-6 1,-13 2,-21l95 -345c1,-10 1,-20 -1,-30 -3,-10 -12,-15 -28,-15 -8,0 -19,4 -32,12 -13,8 -27,19 -42,32 -15,13 -31,28 -47,45 -16,16 -31,34 -45,51 -10,14 -22,30 -34,49 -12,19 -22,38 -32,58 -9,20 -17,40 -23,60 -7,20 -10,39 -10,56 0,8 2,14 4,19 3,4 6,6 10,6 4,0 6,0 7,-1 1,0 3,-1 6,-3 -2,6 -6,12 -12,18 -5,7 -11,13 -18,18 -7,5 -14,10 -21,14 -8,4 -14,6 -19,6 -11,0 -19,-4 -24,-10 -5,-7 -7,-20 -6,-41 0,-21 5,-43 15,-67 9,-24 21,-48 36,-73 16,-25 33,-50 53,-75 20,-26 41,-50 64,-73 18,-19 38,-38 58,-56 20,-19 40,-35 60,-49 20,-13 39,-25 58,-34 18,-8 35,-14 51,-15 13,-1 23,0 31,3 7,3 13,8 17,14 4,5 6,12 6,20 1,7 0,15 -3,23l-85 312c-3,11 -5,18 -6,22 0,4 -1,9 -1,15z"/>
  <path id="14" class="fil5 str0" d="M12600 7080c0,-12 -3,-21 -7,-29 -5,-7 -10,-13 -17,-17 -7,-4 -14,-7 -21,-9 -8,-1 -15,-2 -21,-2 -27,0 -50,6 -70,17 -19,12 -37,27 -52,45 -18,22 -33,45 -45,70 -11,25 -20,49 -27,72 -6,23 -11,44 -13,63 -3,19 -4,34 -4,44 0,22 3,40 9,52 6,13 15,19 27,19 12,0 25,-4 41,-12 16,-9 32,-20 49,-34 17,-14 33,-29 49,-47 15,-18 29,-35 41,-53 7,-11 15,-25 23,-42 7,-16 14,-33 19,-50 6,-17 10,-33 13,-49 4,-16 6,-28 6,-38zm-7 297c0,6 1,11 3,17 2,5 6,8 12,8 6,0 10,-1 13,-2 3,-1 6,-3 11,-5 1,-1 3,-2 6,-3 2,-1 4,-2 7,-2 2,0 3,2 3,5 0,2 -2,5 -5,8 -12,12 -29,26 -51,40 -13,9 -24,15 -34,20 -10,4 -19,7 -26,7 -8,0 -14,-3 -17,-8 -3,-6 -5,-15 -5,-28 0,-7 2,-18 6,-34 3,-16 8,-32 13,-49 6,-19 12,-40 20,-62l-5 0c-7,8 -19,23 -36,43 -18,20 -38,40 -60,60 -22,20 -44,38 -68,54 -24,16 -45,24 -64,24 -17,0 -32,-8 -45,-24 -13,-17 -19,-42 -19,-76 0,-53 11,-104 34,-155 23,-50 53,-96 91,-135 30,-31 62,-55 99,-73 36,-18 71,-26 104,-26 18,0 33,1 46,4 13,3 24,9 31,17 10,-7 20,-12 28,-15 9,-2 19,-2 29,-1 -5,13 -10,27 -15,41 -5,14 -10,30 -16,46 -10,26 -19,55 -30,88 -10,32 -20,63 -29,93 -8,29 -16,56 -22,78 -6,23 -9,38 -9,45z"/>
  <path id="15" class="fil5 str0" d="M13148 6997c7,0 11,0 11,1 0,2 -2,5 -7,8 -4,4 -10,8 -18,12 -7,4 -15,8 -23,12 -8,4 -16,7 -23,9 -8,3 -14,4 -20,4 -11,0 -23,-4 -35,-10 -12,-7 -22,-10 -30,-10 -15,0 -31,4 -48,11 -18,7 -35,22 -54,44 -14,17 -25,35 -35,55 -10,19 -19,38 -25,57 -7,19 -12,37 -15,55 -3,17 -4,32 -4,45 0,39 7,70 21,95 14,25 39,38 75,38 22,0 44,-5 66,-14 22,-8 48,-23 77,-43 3,-1 6,-3 8,-6 3,-2 6,-3 10,-3 3,0 4,2 4,5 0,3 -2,6 -7,11 -12,12 -26,23 -41,36 -16,12 -32,23 -51,33 -18,10 -38,18 -60,24 -21,6 -44,10 -69,10 -40,0 -68,-13 -85,-39 -17,-26 -25,-57 -25,-94 0,-30 4,-60 13,-89 9,-30 21,-58 36,-85 15,-27 32,-51 53,-74 21,-24 43,-44 68,-61 20,-14 43,-27 69,-38 25,-12 50,-18 73,-18 11,0 25,3 42,9 17,7 33,10 49,10z"/>
  <path class="fil4" d="M8515 7892l19 0 0 128c0,20 6,35 18,46 12,10 25,15 41,15 17,0 32,-3 45,-9 13,-7 22,-16 27,-28l0 -152 18 0 0 201 -18 0 0 -18c-7,6 -18,11 -33,16 -14,5 -28,7 -41,7 -22,0 -39,-6 -52,-18 -16,-14 -24,-36 -24,-64l0 -124z"/>
  <polygon id="1" class="fil4" points="8744,8093 8744,7892 8763,7892 8763,7982 8897,7982 8897,7892 8915,7892 8915,8093 8897,8093 8897,7998 8763,7998 8763,8093 "/>
  <path id="2" class="fil4" d="M8974 7953c0,-21 8,-38 24,-50 13,-11 29,-16 48,-16 14,0 27,4 39,11 11,7 19,16 23,29 5,-13 13,-22 24,-29 11,-7 24,-11 39,-11 18,0 34,5 48,15 15,12 23,29 23,51l0 140 -18 0 0 -140c0,-17 -6,-29 -17,-38 -10,-7 -22,-11 -36,-11 -16,0 -28,5 -38,14 -11,9 -16,22 -16,39l0 136 -18 0 0 -136c0,-16 -5,-29 -15,-39 -11,-9 -23,-14 -38,-14 -14,0 -26,4 -36,12 -12,8 -18,21 -18,37l0 140 -18 0 0 -140z"/>
  <path id="3" class="fil4" d="M9490 7984c-4,-25 -15,-45 -33,-60 -17,-13 -34,-20 -54,-20 -23,0 -42,8 -58,23 -16,15 -26,34 -29,57l174 0zm-174 17c4,22 14,41 32,57 17,15 35,23 55,23 17,0 32,-4 46,-13 13,-9 24,-22 33,-39l17 7c-8,19 -20,34 -36,45 -16,12 -37,17 -60,17 -28,0 -53,-9 -73,-28 -21,-21 -32,-46 -32,-77 0,-27 9,-51 25,-71 20,-23 47,-35 80,-35 30,0 55,10 75,31 20,20 30,45 30,74l0 9 -192 0z"/>
  <path id="4" class="fil4" d="M9577 8189l0 -175 0 -21c0,-25 7,-46 23,-63 15,-17 36,-26 61,-26 24,0 44,9 60,26 16,17 24,38 24,63 0,25 -8,46 -25,63 -16,17 -36,25 -59,25 -20,0 -36,-5 -50,-15 -13,-10 -23,-23 -28,-39l2 33c8,13 19,23 32,30 13,6 27,8 44,8 32,0 58,-11 77,-33 16,-20 25,-45 25,-75 0,-32 -11,-57 -34,-77 -19,-17 -42,-26 -68,-26 -33,0 -59,11 -78,34 -16,20 -25,42 -25,67l0 201 19 0z"/>
  <polygon id="5" class="fil4" points="9818,8093 9818,7892 9837,7892 9837,7982 9971,7982 9971,7892 9989,7892 9989,8093 9971,8093 9971,7998 9837,7998 9837,8093 "/>
  <path id="6" class="fil4" d="M10236 7984c-4,-25 -15,-45 -33,-60 -17,-13 -34,-20 -54,-20 -23,0 -42,8 -58,23 -16,15 -26,34 -29,57l174 0zm-174 17c4,22 14,41 32,57 17,15 35,23 55,23 17,0 32,-4 46,-13 13,-9 24,-22 33,-39l17 7c-8,19 -20,34 -36,45 -17,12 -37,17 -60,17 -28,0 -53,-9 -73,-28 -21,-21 -32,-46 -32,-77 0,-27 9,-51 25,-71 20,-23 47,-35 80,-35 30,0 55,10 75,31 20,20 30,45 30,74l0 9 -192 0z"/>
  <path id="7" class="fil4" d="M10310 7953c0,-21 7,-38 23,-50 13,-11 29,-16 48,-16 15,0 28,4 39,11 11,7 19,16 24,29 4,-13 12,-22 23,-29 11,-7 24,-11 39,-11 19,0 35,5 48,15 16,12 24,29 24,51l0 140 -19 0 0 -140c0,-17 -5,-29 -17,-38 -9,-7 -21,-11 -36,-11 -15,0 -28,5 -38,14 -10,9 -15,22 -15,39l0 136 -18 0 0 -136c0,-16 -6,-29 -16,-39 -10,-9 -23,-14 -38,-14 -14,0 -26,4 -36,12 -11,8 -17,21 -17,37l0 140 -18 0 0 -140z"/>
  <path id="8" class="fil4" d="M11052 7889c-12,0 -19,6 -23,17l-48 154 -47 -154c-4,-11 -11,-17 -23,-17 -7,0 -12,2 -17,5 -5,4 -8,10 -10,18l-27 181 18 0 28 -178c1,-6 4,-9 8,-9 3,0 6,4 8,11l46 156c2,7 4,12 6,15 2,4 6,5 10,5 4,0 8,-1 10,-5 3,-4 5,-9 7,-15l46 -156c2,-7 5,-11 8,-11 4,0 7,3 8,9l27 178 18 0 -26 -181c-2,-8 -5,-14 -10,-17 -5,-4 -11,-6 -17,-6z"/>
  <path id="9" class="fil4" d="M11331 8093l0 -79 0 -21c0,-25 -7,-46 -23,-63 -15,-17 -36,-26 -61,-26 -24,0 -44,9 -60,26 -16,17 -24,38 -24,63 0,25 9,46 25,63 16,17 36,25 59,25 20,0 36,-5 50,-15 13,-10 23,-23 28,-39l-2 33c-8,13 -19,23 -32,30 -13,6 -27,8 -44,8 -32,0 -58,-11 -77,-33 -16,-20 -25,-45 -25,-75 0,-32 11,-57 34,-77 19,-17 42,-26 68,-26 33,0 59,11 78,34 16,20 25,42 25,67l0 105 -19 0z"/>
  <path id="10" class="fil4" d="M11460 7908c-17,0 -28,3 -33,8 -5,5 -7,16 -7,33l0 144 -18 0 0 -142c0,-23 3,-39 11,-47 8,-8 23,-12 46,-12l60 0 0 16 -59 0z"/>
  <path id="11" class="fil4" d="M11752 8093l0 -79 0 -21c0,-25 -8,-46 -24,-63 -15,-17 -35,-26 -60,-26 -25,0 -45,9 -61,26 -16,17 -23,38 -23,63 0,25 8,46 24,63 16,17 36,25 60,25 19,0 35,-5 49,-15 14,-10 23,-23 29,-39l-3 33c-8,13 -19,23 -32,30 -13,6 -27,8 -43,8 -33,0 -59,-11 -78,-33 -16,-20 -25,-45 -25,-75 0,-32 12,-57 34,-77 19,-17 42,-26 69,-26 32,0 58,11 77,34 16,20 25,42 25,67l0 105 -18 0z"/>
  <path id="12" class="fil4" d="M11922 7892c24,0 42,6 55,18 11,11 17,26 17,43 0,13 -3,24 -9,34 -5,10 -14,16 -26,19 20,6 36,16 46,30 10,13 14,28 14,45 0,30 -6,53 -20,70 -16,22 -42,33 -78,33 -36,0 -63,-10 -80,-30 -16,-18 -23,-43 -23,-75l17 0c0,32 9,56 28,71 14,11 33,17 57,17 20,0 37,-5 51,-15 20,-14 30,-36 30,-65 0,-19 -7,-35 -22,-48 -15,-13 -32,-20 -53,-20l-18 0 3 -16c20,0 35,-5 47,-14 12,-9 18,-20 18,-33 0,-15 -5,-27 -15,-35 -11,-8 -24,-12 -40,-12l-65 0 0 -17 66 0z"/>
  <path id="13" class="fil4" d="M12079 7892l19 0 0 128c0,20 6,35 18,46 12,10 25,15 41,15 17,0 32,-3 45,-9 13,-7 22,-16 27,-28l0 -152 18 0 0 201 -18 0 0 -18c-7,6 -18,11 -33,16 -14,5 -28,7 -41,7 -22,0 -39,-6 -52,-18 -16,-14 -24,-36 -24,-64l0 -124z"/>
  <polygon id="14" class="fil4" points="12308,8093 12308,7892 12327,7892 12327,7982 12461,7982 12461,7892 12479,7892 12479,8093 12461,8093 12461,7998 12327,7998 12327,8093 "/>
  <path id="15" class="fil4" d="M10659 7994l0 1c0,7 6,13 14,13l93 0c7,0 13,-6 13,-13l0 -1c0,-7 -6,-12 -13,-12l-93 0c-8,0 -14,5 -14,12z"/>
  <path id="16" class="fil5 str1" d="M8515 7892l19 0 0 128c0,20 6,35 18,46 12,10 25,15 41,15 17,0 32,-3 45,-9 13,-7 22,-16 27,-28l0 -152 18 0 0 201 -18 0 0 -18c-7,6 -18,11 -33,16 -14,5 -28,7 -41,7 -22,0 -39,-6 -52,-18 -16,-14 -24,-36 -24,-64l0 -124z"/>
  <polygon id="17" class="fil5 str1" points="8744,8093 8744,7892 8763,7892 8763,7982 8897,7982 8897,7892 8915,7892 8915,8093 8897,8093 8897,7998 8763,7998 8763,8093 "/>
  <path id="18" class="fil5 str1" d="M8974 7953c0,-21 8,-38 24,-50 13,-11 29,-16 48,-16 14,0 27,4 39,11 11,7 19,16 23,29 5,-13 13,-22 24,-29 11,-7 24,-11 39,-11 18,0 34,5 48,15 15,12 23,29 23,51l0 140 -18 0 0 -140c0,-17 -6,-29 -17,-38 -10,-7 -22,-11 -36,-11 -16,0 -28,5 -38,14 -11,9 -16,22 -16,39l0 136 -18 0 0 -136c0,-16 -5,-29 -15,-39 -11,-9 -23,-14 -38,-14 -14,0 -26,4 -36,12 -12,8 -18,21 -18,37l0 140 -18 0 0 -140z"/>
  <path id="19" class="fil5 str1" d="M9490 7984c-4,-25 -15,-45 -33,-60 -17,-13 -34,-20 -54,-20 -23,0 -42,8 -58,23 -16,15 -26,34 -29,57l174 0zm-174 17c4,22 14,41 32,57 17,15 35,23 55,23 17,0 32,-4 46,-13 13,-9 24,-22 33,-39l17 7c-8,19 -20,34 -36,45 -16,12 -37,17 -60,17 -28,0 -53,-9 -73,-28 -21,-21 -32,-46 -32,-77 0,-27 9,-51 25,-71 20,-23 47,-35 80,-35 30,0 55,10 75,31 20,20 30,45 30,74l0 9 -192 0z"/>
  <path id="20" class="fil5 str1" d="M9577 8189l0 -175 0 -21c0,-25 7,-46 23,-63 15,-17 36,-26 61,-26 24,0 44,9 60,26 16,17 24,38 24,63 0,25 -8,46 -25,63 -16,17 -36,25 -59,25 -20,0 -36,-5 -50,-15 -13,-10 -23,-23 -28,-39l2 33c8,13 19,23 32,30 13,6 27,8 44,8 32,0 58,-11 77,-33 16,-20 25,-45 25,-75 0,-32 -11,-57 -34,-77 -19,-17 -42,-26 -68,-26 -33,0 -59,11 -78,34 -16,20 -25,42 -25,67l0 201 19 0z"/>
  <polygon id="21" class="fil5 str1" points="9818,8093 9818,7892 9837,7892 9837,7982 9971,7982 9971,7892 9989,7892 9989,8093 9971,8093 9971,7998 9837,7998 9837,8093 "/>
  <path id="22" class="fil5 str1" d="M10236 7984c-4,-25 -15,-45 -33,-60 -17,-13 -34,-20 -54,-20 -23,0 -42,8 -58,23 -16,15 -26,34 -29,57l174 0zm-174 17c4,22 14,41 32,57 17,15 35,23 55,23 17,0 32,-4 46,-13 13,-9 24,-22 33,-39l17 7c-8,19 -20,34 -36,45 -17,12 -37,17 -60,17 -28,0 -53,-9 -73,-28 -21,-21 -32,-46 -32,-77 0,-27 9,-51 25,-71 20,-23 47,-35 80,-35 30,0 55,10 75,31 20,20 30,45 30,74l0 9 -192 0z"/>
  <path id="23" class="fil5 str1" d="M10310 7953c0,-21 7,-38 23,-50 13,-11 29,-16 48,-16 15,0 28,4 39,11 11,7 19,16 24,29 4,-13 12,-22 23,-29 11,-7 24,-11 39,-11 19,0 35,5 48,15 16,12 24,29 24,51l0 140 -19 0 0 -140c0,-17 -5,-29 -17,-38 -9,-7 -21,-11 -36,-11 -15,0 -28,5 -38,14 -10,9 -15,22 -15,39l0 136 -18 0 0 -136c0,-16 -6,-29 -16,-39 -10,-9 -23,-14 -38,-14 -14,0 -26,4 -36,12 -11,8 -17,21 -17,37l0 140 -18 0 0 -140z"/>
  <path id="24" class="fil5 str1" d="M11052 7889c-12,0 -19,6 -23,17l-48 154 -47 -154c-4,-11 -11,-17 -23,-17 -7,0 -12,2 -17,5 -5,4 -8,10 -10,18l-27 181 18 0 28 -178c1,-6 4,-9 8,-9 3,0 6,4 8,11l46 156c2,7 4,12 6,15 2,4 6,5 10,5 4,0 8,-1 10,-5 3,-4 5,-9 7,-15l46 -156c2,-7 5,-11 8,-11 4,0 7,3 8,9l27 178 18 0 -26 -181c-2,-8 -5,-14 -10,-17 -5,-4 -11,-6 -17,-6z"/>
  <path id="25" class="fil5 str1" d="M11331 8093l0 -79 0 -21c0,-25 -7,-46 -23,-63 -15,-17 -36,-26 -61,-26 -24,0 -44,9 -60,26 -16,17 -24,38 -24,63 0,25 9,46 25,63 16,17 36,25 59,25 20,0 36,-5 50,-15 13,-10 23,-23 28,-39l-2 33c-8,13 -19,23 -32,30 -13,6 -27,8 -44,8 -32,0 -58,-11 -77,-33 -16,-20 -25,-45 -25,-75 0,-32 11,-57 34,-77 19,-17 42,-26 68,-26 33,0 59,11 78,34 16,20 25,42 25,67l0 105 -19 0z"/>
  <path id="26" class="fil5 str1" d="M11460 7908c-17,0 -28,3 -33,8 -5,5 -7,16 -7,33l0 144 -18 0 0 -142c0,-23 3,-39 11,-47 8,-8 23,-12 46,-12l60 0 0 16 -59 0z"/>
  <path id="27" class="fil5 str1" d="M11752 8093l0 -79 0 -21c0,-25 -8,-46 -24,-63 -15,-17 -35,-26 -60,-26 -25,0 -45,9 -61,26 -16,17 -23,38 -23,63 0,25 8,46 24,63 16,17 36,25 60,25 19,0 35,-5 49,-15 14,-10 23,-23 29,-39l-3 33c-8,13 -19,23 -32,30 -13,6 -27,8 -43,8 -33,0 -59,-11 -78,-33 -16,-20 -25,-45 -25,-75 0,-32 12,-57 34,-77 19,-17 42,-26 69,-26 32,0 58,11 77,34 16,20 25,42 25,67l0 105 -18 0z"/>
  <path id="28" class="fil5 str1" d="M11922 7892c24,0 42,6 55,18 11,11 17,26 17,43 0,13 -3,24 -9,34 -5,10 -14,16 -26,19 20,6 36,16 46,30 10,13 14,28 14,45 0,30 -6,53 -20,70 -16,22 -42,33 -78,33 -36,0 -63,-10 -80,-30 -16,-18 -23,-43 -23,-75l17 0c0,32 9,56 28,71 14,11 33,17 57,17 20,0 37,-5 51,-15 20,-14 30,-36 30,-65 0,-19 -7,-35 -22,-48 -15,-13 -32,-20 -53,-20l-18 0 3 -16c20,0 35,-5 47,-14 12,-9 18,-20 18,-33 0,-15 -5,-27 -15,-35 -11,-8 -24,-12 -40,-12l-65 0 0 -17 66 0z"/>
  <path id="29" class="fil5 str1" d="M12079 7892l19 0 0 128c0,20 6,35 18,46 12,10 25,15 41,15 17,0 32,-3 45,-9 13,-7 22,-16 27,-28l0 -152 18 0 0 201 -18 0 0 -18c-7,6 -18,11 -33,16 -14,5 -28,7 -41,7 -22,0 -39,-6 -52,-18 -16,-14 -24,-36 -24,-64l0 -124z"/>
  <polygon id="30" class="fil5 str1" points="12308,8093 12308,7892 12327,7892 12327,7982 12461,7982 12461,7892 12479,7892 12479,8093 12461,8093 12461,7998 12327,7998 12327,8093 "/>
  <path id="31" class="fil5 str1" d="M10659 7994l0 1c0,7 6,13 14,13l93 0c7,0 13,-6 13,-13l0 -1c0,-7 -6,-12 -13,-12l-93 0c-8,0 -14,5 -14,12z"/>
  <g>
   <path class="fil6" d="M10589 7674c-109,0 -217,0 -325,0 -217,0 -2304,9 -2304,19 0,10 2087,19 2304,19 108,0 216,0 325,0 216,0 2303,-9 2303,-19 0,-10 -2087,-19 -2303,-19z"/>
  </g>
  <line class="fil7" x1="7960" y1="7693" x2="12892" y2= "7693" />
  <path class="fil4" d="M9528 4706c117,20 227,45 351,77 81,20 210,63 262,85 106,47 171,136 201,247 47,174 85,441 -62,575 -67,62 -180,114 -282,84l-427 -126c-20,-450 -32,-583 -43,-942zm283 275l28 533c35,8 190,50 201,45 133,-70 84,-435 -7,-499 -42,-30 -147,-60 -222,-79z"/>
  <path class="fil3" d="M9944 4149c-104,34 -18,122 79,94 90,-27 33,-130 -79,-94z"/>
  <path class="fil3" d="M10455 4166c-104,34 -19,123 78,94 90,-26 33,-130 -78,-94z"/>
  <polygon class="fil8" points="10745,4900 10960,4744 11159,5250 11328,4492 11554,4335 11309,5425 11030,5622 "/>
 </g>
</svg>
