<?xml version="1.0" encoding="UTF-8"?>
<!DOCTYPE svg PUBLIC "-//W3C//DTD SVG 1.1//EN" "http://www.w3.org/Graphics/SVG/1.1/DTD/svg11.dtd">
<!-- Creator: CorelDRAW X8 -->
<svg xmlns="http://www.w3.org/2000/svg" xml:space="preserve" width="650" height="200" version="1.1" style="shape-rendering:geometricPrecision; text-rendering:geometricPrecision; image-rendering:optimizeQuality; fill-rule:evenodd; clip-rule:evenodd"
viewBox="3200 10940 9000 4000"
 xmlns:xlink="http://www.w3.org/1999/xlink">
 <defs>
  <style type="text/css">
   <![CDATA[
    .str1 {stroke:#BD0202;stroke-width:8.47}
    .str0 {stroke:#BD0202;stroke-width:16.93}
    .fil7 {fill:none}
    .fil5 {fill:none;fill-rule:nonzero}
    .fil2 {fill:#733D18}
    .fil1 {fill:#BD0202}
    .fil8 {fill:#BD0202}
    .fil3 {fill:#FADFA8}
    .fil0 {fill:white}
    .fil4 {fill:#BD0202;fill-rule:nonzero}
    .fil6 {fill:#CC0202;fill-rule:nonzero}
   ]]>
  </style>
    <clipPath id="id0">
     <path d="M6343 8496c122,-96 244,-193 367,-289 280,-206 428,-398 440,-786 -7,-179 -7,-723 -3,-902 6,-281 -17,-462 -25,-632 -26,-62 -249,-1602 -282,-1627 -2,0 10,-4 9,-3 -4,2 -8,2 -11,4 -241,140 -522,286 -762,426 -331,193 -662,387 -993,580 -105,61 -210,123 -315,184 -203,128 -303,126 -282,432 16,333 32,665 48,997 38,782 76,1563 114,2345 0,76 14,139 39,187 75,139 253,151 503,-7 110,-87 221,-174 331,-261 99,-78 198,-157 297,-235 2,-1 3,-2 5,-3 173,-137 347,-273 520,-410z"/>
    </clipPath>
    <clipPath id="id1">
     <path d="M6991 8096c-175,-73 -11,-149 -21,-464 -16,-343 -39,-686 -48,-1029 -32,-1264 -51,-1506 -93,-2337 50,-33 124,-7 217,13 511,109 1022,217 1532,325 543,115 1085,230 1628,345 16,5 123,28 138,33 209,52 136,157 136,387 0,413 0,826 0,1239 0,677 0,1031 0,1708 -11,339 -94,460 -242,588 -58,67 -167,67 -363,-5 -148,-41 -297,-82 -446,-123 -283,-78 -567,-156 -850,-234 -284,-77 -567,-155 -851,-233 -204,-56 -408,-112 -612,-168 -48,-16 -89,-31 -125,-45z"/>
    </clipPath>
    <clipPath id="id2">
     <path d="M4875 9575c-205,-79 -228,-149 -238,-488 -20,-420 -39,-841 -59,-1262 -31,-653 -61,-1306 -92,-1960 -10,-169 10,-233 82,-244 36,-5 83,2 147,16 828,205 1656,410 2484,616 271,67 543,135 815,202 149,38 249,55 337,44 59,-7 112,-27 169,-60 338,-243 675,-486 1012,-729 234,-168 468,-337 702,-506 159,-127 215,-176 242,-141 30,39 20,182 16,374 12,800 12,1462 2,2372 -2,198 -5,357 -20,682 -13,243 -123,325 -282,462 -212,185 -83,70 -295,254 -352,306 -704,612 -1056,918 -45,40 -321,280 -450,390 -66,51 -98,67 -128,73 -172,33 -1117,-294 -1311,-355 -658,-206 -1445,-416 -2077,-658z"/>
    </clipPath>
 </defs>
 <g id="Слой_x0020_1">
  <metadata id="CorelCorpID_0Corel-Layer"/>
  <path class="fil4" d="M3930 11968c0,141 -21,273 -65,394 -43,122 -100,231 -171,329 -71,97 -153,183 -245,258 -92,74 -188,137 -287,187 -99,51 -198,89 -297,114 -98,26 -188,39 -269,39 -64,0 -121,-3 -169,-9 -49,-6 -92,-13 -129,-20 -37,-7 -70,-14 -99,-20 -28,-6 -54,-9 -77,-9 -35,0 -64,1 -87,5 -24,3 -45,9 -64,16 -20,7 -39,17 -59,29 -19,12 -43,27 -72,43 -3,-4 -6,-8 -8,-14 -5,-7 -8,-14 -8,-21 0,-11 6,-21 16,-32 11,-11 26,-24 44,-40 19,-16 40,-34 64,-56 24,-21 48,-47 73,-79 37,-46 74,-105 111,-175 36,-70 66,-138 91,-206 18,-47 35,-102 52,-162 17,-60 34,-125 52,-194 18,-69 36,-141 55,-217 18,-75 38,-151 59,-227 45,-161 92,-302 141,-421 50,-120 115,-233 194,-339 -92,-9 -184,-7 -276,6 -92,14 -181,37 -265,71 -84,33 -162,76 -234,127 -72,52 -134,110 -187,175 -53,64 -95,136 -125,214 -30,78 -45,160 -45,247 0,58 10,103 30,133 21,30 44,49 71,58 -14,16 -32,33 -53,49 -22,17 -55,26 -102,26 -33,0 -60,-10 -81,-28 -20,-19 -36,-41 -46,-65 -11,-25 -18,-50 -21,-76 -4,-26 -6,-46 -6,-60 0,-66 11,-131 32,-197 21,-65 50,-122 85,-170 80,-112 174,-206 281,-284 107,-78 220,-142 337,-190 118,-49 237,-84 355,-105 119,-22 230,-32 333,-30l72 -74 74 -11c-4,5 -8,13 -15,23 -6,10 -12,19 -20,28 -7,10 -15,22 -23,34 31,0 78,4 139,12 61,8 128,24 201,47 73,23 147,55 223,97 76,41 146,97 208,166 62,69 113,153 152,251 40,99 60,216 60,353zm-212 162c0,-139 -15,-258 -43,-359 -28,-101 -66,-187 -113,-258 -47,-71 -100,-129 -159,-174 -60,-45 -120,-81 -181,-107 -61,-25 -121,-44 -180,-57 -58,-12 -110,-21 -154,-26 -12,16 -26,40 -40,74 -14,34 -29,71 -44,112 -15,41 -29,83 -42,126 -14,43 -26,82 -36,116 -39,127 -75,272 -108,434 -33,163 -79,331 -139,507 -18,50 -41,101 -68,154 -28,53 -58,106 -92,158 -34,53 -70,103 -108,152 -38,49 -76,93 -115,132 48,7 101,14 159,21 50,5 107,10 170,14 64,5 133,7 208,7 198,0 367,-31 505,-93 138,-62 250,-142 336,-241 86,-98 148,-208 186,-329 39,-122 58,-243 58,-363z"/>
  <path id="1" class="fil4" d="M4786 13052c0,15 3,28 7,40 5,13 14,19 28,19 14,0 24,-1 31,-4 6,-3 14,-7 25,-12 3,-2 8,-4 13,-7 5,-2 11,-4 16,-4 5,0 8,4 8,11 0,5 -3,11 -11,19 -14,14 -32,29 -55,46 -23,17 -48,34 -75,52 -28,19 -55,34 -81,42 -26,9 -47,14 -65,14 -18,0 -29,-8 -33,-24 -5,-16 -7,-32 -7,-48 0,-4 2,-18 5,-44 4,-26 9,-50 16,-73l245 -859 -61 0c-71,0 -130,7 -178,20 -48,13 -87,32 -117,56 -30,24 -52,53 -65,86 -14,34 -20,72 -20,115 0,46 10,82 31,109 22,26 47,46 76,60 30,13 60,22 91,26 31,5 56,7 75,7l-8 24c-65,17 -123,45 -172,83 -50,39 -99,85 -147,140 -33,37 -66,75 -97,113 -31,38 -62,73 -93,104 -31,31 -64,56 -98,74 -35,19 -72,28 -113,28 -30,0 -55,-7 -76,-20 -20,-13 -40,-32 -60,-57 52,-9 96,-27 133,-56 41,-30 79,-63 113,-100 35,-36 72,-72 111,-107 115,-107 228,-173 340,-200l3 -8c-15,0 -37,-2 -68,-8 -31,-5 -63,-16 -95,-32 -32,-15 -59,-39 -83,-69 -24,-30 -36,-71 -36,-122 0,-53 16,-100 48,-140 32,-39 74,-74 127,-102 53,-28 114,-50 182,-64 69,-14 139,-21 212,-21l228 0 -239 816c-3,11 -6,24 -8,40 -2,16 -3,29 -3,37z"/>
  <path id="2" class="fil4" d="M5954 12143c12,0 18,8 18,24 0,4 -1,8 -2,13 -2,6 -7,8 -16,8 -32,0 -70,7 -115,22 -44,14 -90,35 -138,63 -48,29 -96,63 -143,104 -48,41 -91,88 -129,141 -39,53 -69,113 -92,178 -23,66 -35,137 -35,213 0,69 13,126 39,171 26,46 69,68 131,68 75,0 148,-37 219,-112 70,-74 132,-173 183,-297 53,-130 92,-258 117,-385 25,-126 37,-254 37,-384 0,-227 -30,-399 -89,-516 -59,-117 -143,-175 -251,-175 -41,0 -78,6 -110,17 -33,12 -63,25 -88,41 -26,16 -47,33 -64,50 -17,16 -29,29 -36,38 -3,4 -7,8 -11,13 -3,6 -8,8 -13,8 -11,0 -16,-3 -16,-10 0,-9 5,-22 16,-37 43,-55 101,-105 174,-149 74,-45 158,-67 254,-67 126,0 225,58 297,174 71,116 107,282 107,496 0,344 -93,668 -279,971 -92,150 -183,263 -274,339 -90,75 -191,113 -303,113 -71,0 -123,-27 -155,-80 -33,-53 -50,-114 -50,-184 0,-62 8,-124 24,-187 16,-63 43,-127 80,-193 44,-79 98,-150 160,-211 62,-61 126,-112 191,-153 66,-41 130,-72 193,-93 63,-21 119,-32 169,-32z"/>
  <path id="3" class="fil4" d="M6946 13052c0,15 2,28 6,40 5,13 14,19 28,19 14,0 24,-1 31,-4 6,-3 14,-7 25,-12 3,-2 8,-4 13,-7 6,-2 11,-4 16,-4 5,0 8,4 8,11 0,5 -3,11 -10,19 -15,14 -33,29 -56,46 -23,17 -48,34 -75,52 -28,19 -55,34 -81,42 -26,9 -47,14 -65,14 -18,0 -29,-8 -33,-24 -5,-16 -7,-32 -7,-48 0,-4 2,-18 5,-44 4,-26 9,-50 16,-73l245 -859 -61 0c-71,0 -130,7 -178,20 -48,13 -87,32 -117,56 -30,24 -52,53 -65,86 -14,34 -20,72 -20,115 0,46 10,82 32,109 21,26 46,46 75,60 30,13 60,22 91,26 31,5 56,7 75,7l-8 24c-65,17 -123,45 -172,83 -50,39 -99,85 -147,140 -33,37 -66,75 -97,113 -31,38 -62,73 -93,104 -31,31 -63,56 -98,74 -35,19 -72,28 -113,28 -30,0 -55,-7 -76,-20 -20,-13 -40,-32 -60,-57 52,-9 96,-27 133,-56 41,-30 79,-63 113,-100 35,-36 72,-72 111,-107 115,-107 228,-173 340,-200l3 -8c-15,0 -37,-2 -68,-8 -31,-5 -63,-16 -95,-32 -31,-15 -59,-39 -83,-69 -24,-30 -36,-71 -36,-122 0,-53 16,-100 48,-140 32,-39 74,-74 127,-102 53,-28 114,-50 182,-64 69,-14 139,-21 212,-21l228 0 -239 816c-3,11 -6,24 -8,40 -2,16 -2,29 -2,37z"/>
  <path id="4" class="fil4" d="M10671 12404c0,131 -30,250 -89,359 -59,108 -135,200 -226,277 -91,78 -191,137 -298,180 -108,42 -210,64 -306,64 -45,0 -89,-6 -131,-16 -41,-10 -78,-26 -110,-46 -32,-21 -57,-48 -75,-79 -19,-32 -28,-69 -28,-112 0,-58 13,-112 40,-161 26,-49 58,-91 95,-126 37,-36 75,-65 113,-88 38,-23 70,-39 95,-48l5 16c-60,36 -103,81 -129,135 -26,54 -39,105 -39,155 0,94 30,161 88,202 59,41 140,61 245,61 80,0 154,-18 222,-55 68,-38 127,-87 177,-148 49,-62 88,-132 117,-210 28,-78 42,-159 42,-243 0,-90 -12,-164 -36,-223 -24,-59 -54,-105 -90,-140 -36,-35 -77,-59 -121,-72 -44,-13 -88,-21 -130,-23 -18,0 -40,6 -66,19 -25,12 -52,26 -81,42 -28,16 -57,31 -87,44 -30,14 -60,20 -88,20 -27,0 -41,-8 -44,-24 -3,-16 -4,-28 -4,-37 0,-30 18,-54 55,-73 36,-19 80,-35 131,-49 37,-9 76,-16 116,-21 40,-6 77,-18 113,-38 80,-42 141,-100 185,-173 43,-72 65,-157 65,-255 0,-62 -14,-115 -43,-161 -28,-45 -65,-83 -110,-113 -45,-30 -96,-52 -153,-66 -57,-14 -114,-21 -173,-21 -46,49 -87,121 -123,216 -37,95 -70,197 -99,306 -29,109 -56,219 -80,328 -24,110 -47,205 -70,285 -9,32 -21,72 -37,121 -16,49 -37,102 -63,159 -25,58 -56,118 -92,181 -35,63 -77,124 -124,182 -38,46 -78,90 -121,132 -44,42 -90,78 -137,110 -48,32 -99,58 -152,76 -53,19 -107,28 -162,28 -96,0 -167,-26 -213,-78 -46,-53 -69,-116 -69,-191 0,-92 34,-179 101,-261 67,-83 165,-144 293,-185l7 16c-24,12 -49,29 -74,49 -25,20 -47,44 -68,72 -20,27 -37,59 -49,95 -12,37 -19,76 -19,119 0,78 23,135 68,173 45,37 101,55 166,55 85,0 158,-24 219,-73 61,-48 113,-112 155,-190 29,-53 54,-112 76,-178 22,-66 42,-135 60,-209 18,-73 35,-149 52,-226 17,-77 35,-154 54,-232 19,-84 41,-167 64,-249 23,-82 49,-162 78,-238 29,-76 62,-147 97,-213 36,-65 76,-124 122,-175 -30,2 -67,6 -112,12 -46,6 -94,16 -145,29 -51,13 -103,31 -155,52 -52,21 -100,47 -142,77 -71,50 -120,104 -149,162 -28,59 -42,114 -42,165 0,21 5,41 14,60 10,19 24,35 41,48 18,13 39,22 63,28 23,5 49,6 78,2 -46,62 -87,103 -121,121 -34,19 -73,28 -116,28 -26,0 -49,-6 -68,-18 -20,-13 -36,-29 -48,-48 -13,-20 -21,-41 -27,-64 -5,-23 -8,-45 -8,-66 0,-32 8,-67 23,-106 15,-38 39,-78 73,-120 34,-43 78,-88 133,-135 54,-47 122,-95 202,-145 47,-28 102,-55 163,-79 61,-25 126,-47 195,-64 69,-18 140,-32 214,-41 73,-10 144,-15 213,-15 75,0 144,8 209,24 64,16 121,39 168,69 48,30 86,67 113,112 27,44 41,94 41,151 0,71 -12,136 -36,196 -24,59 -53,112 -89,158 -35,46 -74,86 -116,119 -43,34 -84,60 -123,78 55,1 110,11 164,29 54,18 101,45 143,81 42,36 75,82 101,138 26,56 39,124 39,204z"/>
  <path id="5" class="fil4" d="M11548 13068c0,15 4,23 13,27 9,3 19,5 30,5 14,0 24,-1 30,-4 6,-2 15,-6 25,-12 4,-1 8,-4 14,-6 5,-3 10,-4 16,-4 5,0 8,3 8,10 0,6 -4,12 -11,19 -28,28 -68,59 -120,93 -28,19 -54,35 -77,45 -23,11 -43,16 -61,16 -14,0 -28,-4 -41,-12 -13,-8 -20,-24 -20,-49 0,-14 2,-30 5,-48l218 -798c4,-23 3,-46 -2,-69 -6,-23 -27,-34 -64,-34 -20,0 -44,9 -75,28 -30,18 -62,43 -97,73 -34,30 -70,64 -107,103 -38,39 -72,79 -104,120 -25,32 -51,70 -78,113 -28,44 -53,88 -75,134 -22,46 -40,93 -54,139 -15,46 -22,88 -22,127 0,20 3,34 10,44 6,10 13,15 22,15 9,0 14,-1 16,-2 2,0 6,-3 13,-6 -5,12 -14,26 -26,41 -13,15 -27,29 -43,41 -16,13 -32,23 -49,32 -17,9 -31,13 -44,13 -25,0 -43,-7 -54,-22 -12,-15 -17,-47 -15,-95 2,-47 13,-99 35,-154 21,-55 49,-111 85,-169 35,-57 76,-115 122,-174 46,-58 95,-114 146,-167 43,-45 88,-88 135,-131 47,-42 93,-79 139,-111 46,-32 91,-58 133,-79 43,-20 82,-32 117,-36 30,-1 54,1 72,8 18,7 31,18 40,31 9,13 14,29 14,47 1,17 -1,35 -6,53l-197 720c-7,25 -12,42 -13,52 -2,10 -3,21 -3,33z"/>
  <path id="6" class="fil4" d="M12681 12364c0,-27 -6,-49 -16,-65 -11,-17 -24,-31 -39,-40 -15,-10 -31,-17 -49,-20 -18,-4 -34,-6 -48,-6 -62,0 -115,14 -161,40 -45,27 -85,61 -121,104 -42,50 -77,103 -103,161 -27,57 -48,113 -63,166 -15,53 -25,102 -30,146 -6,45 -8,78 -8,101 0,52 6,92 20,121 13,30 34,44 62,44 27,0 58,-10 94,-29 37,-20 74,-45 113,-77 39,-32 77,-68 113,-109 37,-41 68,-82 95,-122 18,-27 35,-59 53,-98 18,-38 33,-76 45,-115 13,-39 23,-77 31,-113 8,-37 12,-66 12,-89zm-16 686c0,14 2,27 6,40 5,12 14,18 28,18 15,0 25,-1 31,-4 6,-2 15,-6 25,-12 4,-2 8,-4 13,-6 6,-3 11,-4 16,-4 6,0 8,3 8,10 0,6 -3,12 -10,19 -29,28 -68,59 -120,93 -28,19 -54,35 -77,45 -23,11 -43,16 -61,16 -18,0 -31,-6 -39,-19 -8,-12 -12,-33 -12,-63 0,-16 5,-42 14,-79 9,-36 19,-74 32,-113 12,-44 27,-92 45,-143l-11 0c-16,19 -44,52 -85,98 -41,46 -86,93 -137,140 -50,47 -103,88 -158,125 -55,36 -104,54 -146,54 -41,0 -76,-19 -105,-56 -30,-37 -44,-95 -44,-175 0,-121 26,-240 78,-357 52,-117 123,-221 212,-313 67,-71 143,-127 227,-168 84,-41 164,-61 241,-61 40,0 76,4 106,11 30,7 54,20 72,40 23,-18 44,-30 65,-35 20,-5 42,-6 65,-3 -11,30 -22,62 -33,95 -12,33 -25,68 -39,105 -21,60 -44,128 -68,203 -24,76 -46,147 -66,216 -20,68 -38,128 -52,180 -14,53 -21,87 -21,103z"/>
  <path id="7" class="fil4" d="M13946 12172c18,0 27,1 27,3 0,5 -5,11 -16,19 -11,8 -24,18 -41,27 -17,10 -35,20 -53,28 -19,9 -37,16 -55,22 -18,5 -33,8 -45,8 -27,0 -54,-8 -81,-23 -28,-15 -51,-23 -71,-23 -33,0 -70,9 -110,26 -40,17 -81,51 -124,102 -32,39 -59,81 -82,125 -23,44 -42,89 -57,133 -15,44 -26,86 -33,126 -8,40 -11,75 -11,105 0,89 16,162 49,220 33,57 91,86 174,86 50,0 100,-10 152,-30 51,-21 111,-54 178,-100 7,-4 13,-8 19,-14 5,-5 12,-7 21,-7 7,0 10,3 10,10 0,7 -5,16 -15,27 -29,26 -61,54 -96,82 -36,29 -75,54 -117,77 -43,23 -89,42 -138,56 -50,14 -103,21 -160,21 -92,0 -158,-29 -197,-89 -39,-59 -58,-131 -58,-216 0,-70 10,-138 30,-206 21,-69 48,-134 83,-196 34,-62 76,-120 123,-173 48,-53 101,-100 157,-141 46,-32 99,-61 159,-87 59,-27 115,-40 168,-40 27,0 60,7 99,21 39,14 76,21 111,21z"/>
  <path id="8" class="fil5 str0" d="M3930 11968c0,141 -21,273 -65,394 -43,122 -100,231 -171,329 -71,97 -153,183 -245,258 -92,74 -188,137 -287,187 -99,51 -198,89 -297,114 -98,26 -188,39 -269,39 -64,0 -121,-3 -169,-9 -49,-6 -92,-13 -129,-20 -37,-7 -70,-14 -99,-20 -28,-6 -54,-9 -77,-9 -35,0 -64,1 -87,5 -24,3 -45,9 -64,16 -20,7 -39,17 -59,29 -19,12 -43,27 -72,43 -3,-4 -6,-8 -8,-14 -5,-7 -8,-14 -8,-21 0,-11 6,-21 16,-32 11,-11 26,-24 44,-40 19,-16 40,-34 64,-56 24,-21 48,-47 73,-79 37,-46 74,-105 111,-175 36,-70 66,-138 91,-206 18,-47 35,-102 52,-162 17,-60 34,-125 52,-194 18,-69 36,-141 55,-217 18,-75 38,-151 59,-227 45,-161 92,-302 141,-421 50,-120 115,-233 194,-339 -92,-9 -184,-7 -276,6 -92,14 -181,37 -265,71 -84,33 -162,76 -234,127 -72,52 -134,110 -187,175 -53,64 -95,136 -125,214 -30,78 -45,160 -45,247 0,58 10,103 30,133 21,30 44,49 71,58 -14,16 -32,33 -53,49 -22,17 -55,26 -102,26 -33,0 -60,-10 -81,-28 -20,-19 -36,-41 -46,-65 -11,-25 -18,-50 -21,-76 -4,-26 -6,-46 -6,-60 0,-66 11,-131 32,-197 21,-65 50,-122 85,-170 80,-112 174,-206 281,-284 107,-78 220,-142 337,-190 118,-49 237,-84 355,-105 119,-22 230,-32 333,-30l72 -74 74 -11c-4,5 -8,13 -15,23 -6,10 -12,19 -20,28 -7,10 -15,22 -23,34 31,0 78,4 139,12 61,8 128,24 201,47 73,23 147,55 223,97 76,41 146,97 208,166 62,69 113,153 152,251 40,99 60,216 60,353zm-212 162c0,-139 -15,-258 -43,-359 -28,-101 -66,-187 -113,-258 -47,-71 -100,-129 -159,-174 -60,-45 -120,-81 -181,-107 -61,-25 -121,-44 -180,-57 -58,-12 -110,-21 -154,-26 -12,16 -26,40 -40,74 -14,34 -29,71 -44,112 -15,41 -29,83 -42,126 -14,43 -26,82 -36,116 -39,127 -75,272 -108,434 -33,163 -79,331 -139,507 -18,50 -41,101 -68,154 -28,53 -58,106 -92,158 -34,53 -70,103 -108,152 -38,49 -76,93 -115,132 48,7 101,14 159,21 50,5 107,10 170,14 64,5 133,7 208,7 198,0 367,-31 505,-93 138,-62 250,-142 336,-241 86,-98 148,-208 186,-329 39,-122 58,-243 58,-363z"/>
  <path id="9" class="fil5 str0" d="M4786 13052c0,15 3,28 7,40 5,13 14,19 28,19 14,0 24,-1 31,-4 6,-3 14,-7 25,-12 3,-2 8,-4 13,-7 5,-2 11,-4 16,-4 5,0 8,4 8,11 0,5 -3,11 -11,19 -14,14 -32,29 -55,46 -23,17 -48,34 -75,52 -28,19 -55,34 -81,42 -26,9 -47,14 -65,14 -18,0 -29,-8 -33,-24 -5,-16 -7,-32 -7,-48 0,-4 2,-18 5,-44 4,-26 9,-50 16,-73l245 -859 -61 0c-71,0 -130,7 -178,20 -48,13 -87,32 -117,56 -30,24 -52,53 -65,86 -14,34 -20,72 -20,115 0,46 10,82 31,109 22,26 47,46 76,60 30,13 60,22 91,26 31,5 56,7 75,7l-8 24c-65,17 -123,45 -172,83 -50,39 -99,85 -147,140 -33,37 -66,75 -97,113 -31,38 -62,73 -93,104 -31,31 -64,56 -98,74 -35,19 -72,28 -113,28 -30,0 -55,-7 -76,-20 -20,-13 -40,-32 -60,-57 52,-9 96,-27 133,-56 41,-30 79,-63 113,-100 35,-36 72,-72 111,-107 115,-107 228,-173 340,-200l3 -8c-15,0 -37,-2 -68,-8 -31,-5 -63,-16 -95,-32 -32,-15 -59,-39 -83,-69 -24,-30 -36,-71 -36,-122 0,-53 16,-100 48,-140 32,-39 74,-74 127,-102 53,-28 114,-50 182,-64 69,-14 139,-21 212,-21l228 0 -239 816c-3,11 -6,24 -8,40 -2,16 -3,29 -3,37z"/>
  <path id="10" class="fil5 str0" d="M5954 12143c12,0 18,8 18,24 0,4 -1,8 -2,13 -2,6 -7,8 -16,8 -32,0 -70,7 -115,22 -44,14 -90,35 -138,63 -48,29 -96,63 -143,104 -48,41 -91,88 -129,141 -39,53 -69,113 -92,178 -23,66 -35,137 -35,213 0,69 13,126 39,171 26,46 69,68 131,68 75,0 148,-37 219,-112 70,-74 132,-173 183,-297 53,-130 92,-258 117,-385 25,-126 37,-254 37,-384 0,-227 -30,-399 -89,-516 -59,-117 -143,-175 -251,-175 -41,0 -78,6 -110,17 -33,12 -63,25 -88,41 -26,16 -47,33 -64,50 -17,16 -29,29 -36,38 -3,4 -7,8 -11,13 -3,6 -8,8 -13,8 -11,0 -16,-3 -16,-10 0,-9 5,-22 16,-37 43,-55 101,-105 174,-149 74,-45 158,-67 254,-67 126,0 225,58 297,174 71,116 107,282 107,496 0,344 -93,668 -279,971 -92,150 -183,263 -274,339 -90,75 -191,113 -303,113 -71,0 -123,-27 -155,-80 -33,-53 -50,-114 -50,-184 0,-62 8,-124 24,-187 16,-63 43,-127 80,-193 44,-79 98,-150 160,-211 62,-61 126,-112 191,-153 66,-41 130,-72 193,-93 63,-21 119,-32 169,-32z"/>
  <path id="11" class="fil5 str0" d="M6946 13052c0,15 2,28 6,40 5,13 14,19 28,19 14,0 24,-1 31,-4 6,-3 14,-7 25,-12 3,-2 8,-4 13,-7 6,-2 11,-4 16,-4 5,0 8,4 8,11 0,5 -3,11 -10,19 -15,14 -33,29 -56,46 -23,17 -48,34 -75,52 -28,19 -55,34 -81,42 -26,9 -47,14 -65,14 -18,0 -29,-8 -33,-24 -5,-16 -7,-32 -7,-48 0,-4 2,-18 5,-44 4,-26 9,-50 16,-73l245 -859 -61 0c-71,0 -130,7 -178,20 -48,13 -87,32 -117,56 -30,24 -52,53 -65,86 -14,34 -20,72 -20,115 0,46 10,82 32,109 21,26 46,46 75,60 30,13 60,22 91,26 31,5 56,7 75,7l-8 24c-65,17 -123,45 -172,83 -50,39 -99,85 -147,140 -33,37 -66,75 -97,113 -31,38 -62,73 -93,104 -31,31 -63,56 -98,74 -35,19 -72,28 -113,28 -30,0 -55,-7 -76,-20 -20,-13 -40,-32 -60,-57 52,-9 96,-27 133,-56 41,-30 79,-63 113,-100 35,-36 72,-72 111,-107 115,-107 228,-173 340,-200l3 -8c-15,0 -37,-2 -68,-8 -31,-5 -63,-16 -95,-32 -31,-15 -59,-39 -83,-69 -24,-30 -36,-71 -36,-122 0,-53 16,-100 48,-140 32,-39 74,-74 127,-102 53,-28 114,-50 182,-64 69,-14 139,-21 212,-21l228 0 -239 816c-3,11 -6,24 -8,40 -2,16 -2,29 -2,37z"/>
  <path id="12" class="fil5 str0" d="M10671 12404c0,131 -30,250 -89,359 -59,108 -135,200 -226,277 -91,78 -191,137 -298,180 -108,42 -210,64 -306,64 -45,0 -89,-6 -131,-16 -41,-10 -78,-26 -110,-46 -32,-21 -57,-48 -75,-79 -19,-32 -28,-69 -28,-112 0,-58 13,-112 40,-161 26,-49 58,-91 95,-126 37,-36 75,-65 113,-88 38,-23 70,-39 95,-48l5 16c-60,36 -103,81 -129,135 -26,54 -39,105 -39,155 0,94 30,161 88,202 59,41 140,61 245,61 80,0 154,-18 222,-55 68,-38 127,-87 177,-148 49,-62 88,-132 117,-210 28,-78 42,-159 42,-243 0,-90 -12,-164 -36,-223 -24,-59 -54,-105 -90,-140 -36,-35 -77,-59 -121,-72 -44,-13 -88,-21 -130,-23 -18,0 -40,6 -66,19 -25,12 -52,26 -81,42 -28,16 -57,31 -87,44 -30,14 -60,20 -88,20 -27,0 -41,-8 -44,-24 -3,-16 -4,-28 -4,-37 0,-30 18,-54 55,-73 36,-19 80,-35 131,-49 37,-9 76,-16 116,-21 40,-6 77,-18 113,-38 80,-42 141,-100 185,-173 43,-72 65,-157 65,-255 0,-62 -14,-115 -43,-161 -28,-45 -65,-83 -110,-113 -45,-30 -96,-52 -153,-66 -57,-14 -114,-21 -173,-21 -46,49 -87,121 -123,216 -37,95 -70,197 -99,306 -29,109 -56,219 -80,328 -24,110 -47,205 -70,285 -9,32 -21,72 -37,121 -16,49 -37,102 -63,159 -25,58 -56,118 -92,181 -35,63 -77,124 -124,182 -38,46 -78,90 -121,132 -44,42 -90,78 -137,110 -48,32 -99,58 -152,76 -53,19 -107,28 -162,28 -96,0 -167,-26 -213,-78 -46,-53 -69,-116 -69,-191 0,-92 34,-179 101,-261 67,-83 165,-144 293,-185l7 16c-24,12 -49,29 -74,49 -25,20 -47,44 -68,72 -20,27 -37,59 -49,95 -12,37 -19,76 -19,119 0,78 23,135 68,173 45,37 101,55 166,55 85,0 158,-24 219,-73 61,-48 113,-112 155,-190 29,-53 54,-112 76,-178 22,-66 42,-135 60,-209 18,-73 35,-149 52,-226 17,-77 35,-154 54,-232 19,-84 41,-167 64,-249 23,-82 49,-162 78,-238 29,-76 62,-147 97,-213 36,-65 76,-124 122,-175 -30,2 -67,6 -112,12 -46,6 -94,16 -145,29 -51,13 -103,31 -155,52 -52,21 -100,47 -142,77 -71,50 -120,104 -149,162 -28,59 -42,114 -42,165 0,21 5,41 14,60 10,19 24,35 41,48 18,13 39,22 63,28 23,5 49,6 78,2 -46,62 -87,103 -121,121 -34,19 -73,28 -116,28 -26,0 -49,-6 -68,-18 -20,-13 -36,-29 -48,-48 -13,-20 -21,-41 -27,-64 -5,-23 -8,-45 -8,-66 0,-32 8,-67 23,-106 15,-38 39,-78 73,-120 34,-43 78,-88 133,-135 54,-47 122,-95 202,-145 47,-28 102,-55 163,-79 61,-25 126,-47 195,-64 69,-18 140,-32 214,-41 73,-10 144,-15 213,-15 75,0 144,8 209,24 64,16 121,39 168,69 48,30 86,67 113,112 27,44 41,94 41,151 0,71 -12,136 -36,196 -24,59 -53,112 -89,158 -35,46 -74,86 -116,119 -43,34 -84,60 -123,78 55,1 110,11 164,29 54,18 101,45 143,81 42,36 75,82 101,138 26,56 39,124 39,204z"/>
  <path id="13" class="fil5 str0" d="M11548 13068c0,15 4,23 13,27 9,3 19,5 30,5 14,0 24,-1 30,-4 6,-2 15,-6 25,-12 4,-1 8,-4 14,-6 5,-3 10,-4 16,-4 5,0 8,3 8,10 0,6 -4,12 -11,19 -28,28 -68,59 -120,93 -28,19 -54,35 -77,45 -23,11 -43,16 -61,16 -14,0 -28,-4 -41,-12 -13,-8 -20,-24 -20,-49 0,-14 2,-30 5,-48l218 -798c4,-23 3,-46 -2,-69 -6,-23 -27,-34 -64,-34 -20,0 -44,9 -75,28 -30,18 -62,43 -97,73 -34,30 -70,64 -107,103 -38,39 -72,79 -104,120 -25,32 -51,70 -78,113 -28,44 -53,88 -75,134 -22,46 -40,93 -54,139 -15,46 -22,88 -22,127 0,20 3,34 10,44 6,10 13,15 22,15 9,0 14,-1 16,-2 2,0 6,-3 13,-6 -5,12 -14,26 -26,41 -13,15 -27,29 -43,41 -16,13 -32,23 -49,32 -17,9 -31,13 -44,13 -25,0 -43,-7 -54,-22 -12,-15 -17,-47 -15,-95 2,-47 13,-99 35,-154 21,-55 49,-111 85,-169 35,-57 76,-115 122,-174 46,-58 95,-114 146,-167 43,-45 88,-88 135,-131 47,-42 93,-79 139,-111 46,-32 91,-58 133,-79 43,-20 82,-32 117,-36 30,-1 54,1 72,8 18,7 31,18 40,31 9,13 14,29 14,47 1,17 -1,35 -6,53l-197 720c-7,25 -12,42 -13,52 -2,10 -3,21 -3,33z"/>
  <path id="14" class="fil5 str0" d="M12681 12364c0,-27 -6,-49 -16,-65 -11,-17 -24,-31 -39,-40 -15,-10 -31,-17 -49,-20 -18,-4 -34,-6 -48,-6 -62,0 -115,14 -161,40 -45,27 -85,61 -121,104 -42,50 -77,103 -103,161 -27,57 -48,113 -63,166 -15,53 -25,102 -30,146 -6,45 -8,78 -8,101 0,52 6,92 20,121 13,30 34,44 62,44 27,0 58,-10 94,-29 37,-20 74,-45 113,-77 39,-32 77,-68 113,-109 37,-41 68,-82 95,-122 18,-27 35,-59 53,-98 18,-38 33,-76 45,-115 13,-39 23,-77 31,-113 8,-37 12,-66 12,-89zm-16 686c0,14 2,27 6,40 5,12 14,18 28,18 15,0 25,-1 31,-4 6,-2 15,-6 25,-12 4,-2 8,-4 13,-6 6,-3 11,-4 16,-4 6,0 8,3 8,10 0,6 -3,12 -10,19 -29,28 -68,59 -120,93 -28,19 -54,35 -77,45 -23,11 -43,16 -61,16 -18,0 -31,-6 -39,-19 -8,-12 -12,-33 -12,-63 0,-16 5,-42 14,-79 9,-36 19,-74 32,-113 12,-44 27,-92 45,-143l-11 0c-16,19 -44,52 -85,98 -41,46 -86,93 -137,140 -50,47 -103,88 -158,125 -55,36 -104,54 -146,54 -41,0 -76,-19 -105,-56 -30,-37 -44,-95 -44,-175 0,-121 26,-240 78,-357 52,-117 123,-221 212,-313 67,-71 143,-127 227,-168 84,-41 164,-61 241,-61 40,0 76,4 106,11 30,7 54,20 72,40 23,-18 44,-30 65,-35 20,-5 42,-6 65,-3 -11,30 -22,62 -33,95 -12,33 -25,68 -39,105 -21,60 -44,128 -68,203 -24,76 -46,147 -66,216 -20,68 -38,128 -52,180 -14,53 -21,87 -21,103z"/>
  <path id="15" class="fil5 str0" d="M13946 12172c18,0 27,1 27,3 0,5 -5,11 -16,19 -11,8 -24,18 -41,27 -17,10 -35,20 -53,28 -19,9 -37,16 -55,22 -18,5 -33,8 -45,8 -27,0 -54,-8 -81,-23 -28,-15 -51,-23 -71,-23 -33,0 -70,9 -110,26 -40,17 -81,51 -124,102 -32,39 -59,81 -82,125 -23,44 -42,89 -57,133 -15,44 -26,86 -33,126 -8,40 -11,75 -11,105 0,89 16,162 49,220 33,57 91,86 174,86 50,0 100,-10 152,-30 51,-21 111,-54 178,-100 7,-4 13,-8 19,-14 5,-5 12,-7 21,-7 7,0 10,3 10,10 0,7 -5,16 -15,27 -29,26 -61,54 -96,82 -36,29 -75,54 -117,77 -43,23 -89,42 -138,56 -50,14 -103,21 -160,21 -92,0 -158,-29 -197,-89 -39,-59 -58,-131 -58,-216 0,-70 10,-138 30,-206 21,-69 48,-134 83,-196 34,-62 76,-120 123,-173 48,-53 101,-100 157,-141 46,-32 99,-61 159,-87 59,-27 115,-40 168,-40 27,0 60,7 99,21 39,14 76,21 111,21z"/>
  <path class="fil4" d="M3247 14240l42 0 0 295c0,46 15,82 44,108 26,23 57,34 94,34 38,0 72,-7 103,-22 31,-15 52,-35 62,-63l0 -352 42 0 0 466 -42 0 0 -43c-16,13 -41,25 -75,37 -33,11 -65,17 -95,17 -50,0 -91,-14 -121,-43 -36,-33 -54,-82 -54,-147l0 -287z"/>
  <polygon id="1" class="fil4" points="3776,14706 3776,14240 3818,14240 3818,14448 4128,14448 4128,14240 4170,14240 4170,14706 4128,14706 4128,14486 3818,14486 3818,14706 "/>
  <path id="2" class="fil4" d="M4307 14381c0,-49 18,-88 54,-116 31,-24 68,-36 111,-36 34,0 64,8 90,24 26,16 44,39 54,67 11,-28 29,-51 55,-67 25,-16 55,-24 90,-24 43,0 80,12 110,35 37,28 55,67 55,117l0 325 -42 0 0 -326c0,-38 -13,-67 -40,-86 -22,-17 -49,-25 -83,-25 -35,0 -65,10 -88,32 -24,21 -36,51 -36,89l0 316 -41 0 0 -316c0,-38 -12,-67 -36,-89 -24,-21 -53,-32 -88,-32 -32,0 -60,8 -82,26 -28,20 -41,49 -41,86l0 325 -42 0 0 -325z"/>
  <path id="3" class="fil4" d="M5499 14453c-10,-59 -36,-105 -78,-139 -37,-30 -78,-45 -123,-45 -53,0 -98,17 -135,52 -38,34 -60,79 -66,132l402 0zm-402 38c8,52 32,96 72,132 40,36 83,54 129,54 39,0 74,-10 105,-30 30,-20 56,-50 77,-91l39 16c-19,45 -47,79 -82,104 -39,27 -86,41 -139,41 -66,0 -122,-22 -170,-67 -49,-46 -73,-105 -73,-177 0,-62 19,-117 59,-163 45,-54 107,-81 184,-81 69,0 126,23 173,70 46,47 69,105 69,173l0 19 -443 0z"/>
  <path id="4" class="fil4" d="M5698 14927l0 -404 0 -50c0,-57 18,-106 54,-145 36,-39 82,-59 140,-59 57,0 104,19 140,59 36,39 54,87 54,145 0,58 -18,107 -56,146 -37,39 -83,58 -138,58 -44,0 -82,-12 -114,-35 -31,-23 -53,-53 -66,-91l6 78c18,30 43,53 75,68 28,13 61,20 99,20 76,0 135,-26 178,-77 39,-47 58,-104 58,-174 0,-73 -26,-132 -77,-177 -45,-40 -99,-60 -159,-60 -75,0 -134,26 -179,79 -38,45 -57,96 -57,154l0 465 42 0z"/>
  <polygon id="5" class="fil4" points="6257,14706 6257,14240 6299,14240 6299,14448 6609,14448 6609,14240 6651,14240 6651,14706 6609,14706 6609,14486 6299,14486 6299,14706 "/>
  <path id="6" class="fil4" d="M7222 14453c-10,-59 -36,-105 -78,-139 -37,-30 -78,-45 -123,-45 -53,0 -98,17 -135,52 -38,34 -60,79 -66,132l402 0zm-402 38c8,52 32,96 72,132 40,36 83,54 129,54 39,0 74,-10 105,-30 30,-20 56,-50 77,-91l39 16c-19,45 -47,79 -82,104 -39,27 -86,41 -139,41 -66,0 -122,-22 -170,-67 -49,-46 -73,-105 -73,-177 0,-62 19,-117 59,-163 45,-54 107,-81 184,-81 69,0 126,23 173,70 46,47 69,105 69,173l0 19 -443 0z"/>
  <path id="7" class="fil4" d="M7391 14381c0,-49 18,-88 54,-116 31,-24 68,-36 111,-36 34,0 64,8 90,24 26,16 44,39 55,67 10,-28 28,-51 54,-67 25,-16 55,-24 90,-24 43,0 80,12 110,35 37,28 55,67 55,117l0 325 -42 0 0 -326c0,-38 -13,-67 -39,-86 -22,-17 -50,-25 -84,-25 -35,0 -65,10 -88,32 -24,21 -35,51 -35,89l0 316 -42 0 0 -316c0,-38 -12,-67 -36,-89 -24,-21 -53,-32 -88,-32 -32,0 -60,8 -82,26 -27,20 -41,49 -41,86l0 325 -42 0 0 -325z"/>
  <path id="8" class="fil4" d="M9106 14234c-27,0 -45,13 -54,40l-109 353 -109 -353c-9,-27 -27,-40 -54,-40 -15,0 -28,4 -39,11 -11,8 -19,22 -23,42l-62 419 42 0 63 -412c3,-14 10,-20 19,-20 7,0 13,8 18,24l107 360c5,16 10,28 15,36 5,8 12,12 23,12 9,0 17,-5 23,-13 6,-9 11,-20 15,-35l107 -360c5,-16 11,-24 18,-24 9,0 16,6 19,20l63 412 42 0 -62 -419c-3,-18 -11,-32 -23,-41 -12,-8 -25,-12 -39,-12z"/>
  <path id="9" class="fil4" d="M9751 14706l0 -183 0 -50c0,-57 -17,-106 -53,-145 -36,-39 -83,-59 -141,-59 -57,0 -103,19 -139,59 -36,39 -55,87 -55,145 0,58 19,107 56,146 37,39 83,58 138,58 45,0 83,-12 114,-35 32,-23 54,-53 67,-91l-6 78c-18,30 -43,53 -75,68 -29,13 -62,20 -100,20 -75,0 -134,-26 -178,-77 -38,-47 -57,-104 -57,-174 0,-73 25,-132 76,-177 46,-40 99,-60 159,-60 75,0 135,26 180,79 37,45 56,96 56,154l0 244 -42 0z"/>
  <path id="10" class="fil4" d="M10049 14278c-40,0 -65,6 -77,17 -11,11 -17,37 -17,78l0 333 -42 0 0 -329c0,-54 9,-90 27,-109 17,-18 53,-28 106,-28l138 0 0 38 -135 0z"/>
  <path id="11" class="fil4" d="M10722 14706l0 -183 0 -50c0,-57 -18,-106 -54,-145 -36,-39 -83,-59 -140,-59 -57,0 -104,19 -140,59 -36,39 -54,87 -54,145 0,58 18,107 55,146 38,39 84,58 139,58 44,0 82,-12 114,-35 31,-23 53,-53 66,-91l-6 78c-18,30 -43,53 -75,68 -28,13 -61,20 -99,20 -76,0 -135,-26 -178,-77 -39,-47 -58,-104 -58,-174 0,-73 26,-132 77,-177 45,-40 98,-60 159,-60 75,0 134,26 179,79 38,45 57,96 57,154l0 244 -42 0z"/>
  <path id="12" class="fil4" d="M11114 14240c56,0 99,14 128,42 26,26 39,59 39,100 0,30 -6,55 -19,78 -14,22 -34,37 -61,44 47,14 82,38 106,70 22,29 33,64 33,104 0,67 -15,121 -46,161 -38,50 -98,76 -181,76 -83,0 -144,-24 -185,-70 -35,-41 -53,-99 -53,-173l39 0c0,75 22,130 65,163 33,26 77,39 131,39 47,0 87,-11 120,-34 46,-32 68,-82 68,-150 0,-43 -17,-81 -51,-111 -34,-30 -75,-45 -122,-45l-42 0 6 -38c46,0 83,-11 110,-32 27,-21 41,-46 41,-75 0,-36 -12,-63 -36,-81 -23,-18 -54,-28 -92,-28l-150 0 0 -40 152 0z"/>
  <path id="13" class="fil4" d="M11479 14240l42 0 0 295c0,46 14,82 44,108 26,23 57,34 94,34 38,0 72,-7 103,-22 31,-15 52,-35 62,-63l0 -352 42 0 0 466 -42 0 0 -43c-16,13 -41,25 -75,37 -33,11 -65,17 -95,17 -50,0 -91,-14 -121,-43 -36,-33 -54,-82 -54,-147l0 -287z"/>
  <polygon id="14" class="fil4" points="12008,14706 12008,14240 12050,14240 12050,14448 12360,14448 12360,14240 12402,14240 12402,14706 12360,14706 12360,14486 12050,14486 12050,14706 "/>
  <path id="15" class="fil4" d="M8199 14476l0 2c0,17 14,30 31,30l216 0c17,0 30,-13 30,-29l0 -2c0,-16 -13,-30 -30,-30l-216 0c-17,0 -31,14 -31,29z"/>
  <path id="16" class="fil5 str1" d="M3247 14240l42 0 0 295c0,46 15,82 44,108 26,23 57,34 94,34 38,0 72,-7 103,-22 31,-15 52,-35 62,-63l0 -352 42 0 0 466 -42 0 0 -43c-16,13 -41,25 -75,37 -33,11 -65,17 -95,17 -50,0 -91,-14 -121,-43 -36,-33 -54,-82 -54,-147l0 -287z"/>
  <polygon id="17" class="fil5 str1" points="3776,14706 3776,14240 3818,14240 3818,14448 4128,14448 4128,14240 4170,14240 4170,14706 4128,14706 4128,14486 3818,14486 3818,14706 "/>
  <path id="18" class="fil5 str1" d="M4307 14381c0,-49 18,-88 54,-116 31,-24 68,-36 111,-36 34,0 64,8 90,24 26,16 44,39 54,67 11,-28 29,-51 55,-67 25,-16 55,-24 90,-24 43,0 80,12 110,35 37,28 55,67 55,117l0 325 -42 0 0 -326c0,-38 -13,-67 -40,-86 -22,-17 -49,-25 -83,-25 -35,0 -65,10 -88,32 -24,21 -36,51 -36,89l0 316 -41 0 0 -316c0,-38 -12,-67 -36,-89 -24,-21 -53,-32 -88,-32 -32,0 -60,8 -82,26 -28,20 -41,49 -41,86l0 325 -42 0 0 -325z"/>
  <path id="19" class="fil5 str1" d="M5499 14453c-10,-59 -36,-105 -78,-139 -37,-30 -78,-45 -123,-45 -53,0 -98,17 -135,52 -38,34 -60,79 -66,132l402 0zm-402 38c8,52 32,96 72,132 40,36 83,54 129,54 39,0 74,-10 105,-30 30,-20 56,-50 77,-91l39 16c-19,45 -47,79 -82,104 -39,27 -86,41 -139,41 -66,0 -122,-22 -170,-67 -49,-46 -73,-105 -73,-177 0,-62 19,-117 59,-163 45,-54 107,-81 184,-81 69,0 126,23 173,70 46,47 69,105 69,173l0 19 -443 0z"/>
  <path id="20" class="fil5 str1" d="M5698 14927l0 -404 0 -50c0,-57 18,-106 54,-145 36,-39 82,-59 140,-59 57,0 104,19 140,59 36,39 54,87 54,145 0,58 -18,107 -56,146 -37,39 -83,58 -138,58 -44,0 -82,-12 -114,-35 -31,-23 -53,-53 -66,-91l6 78c18,30 43,53 75,68 28,13 61,20 99,20 76,0 135,-26 178,-77 39,-47 58,-104 58,-174 0,-73 -26,-132 -77,-177 -45,-40 -99,-60 -159,-60 -75,0 -134,26 -179,79 -38,45 -57,96 -57,154l0 465 42 0z"/>
  <polygon id="21" class="fil5 str1" points="6257,14706 6257,14240 6299,14240 6299,14448 6609,14448 6609,14240 6651,14240 6651,14706 6609,14706 6609,14486 6299,14486 6299,14706 "/>
  <path id="22" class="fil5 str1" d="M7222 14453c-10,-59 -36,-105 -78,-139 -37,-30 -78,-45 -123,-45 -53,0 -98,17 -135,52 -38,34 -60,79 -66,132l402 0zm-402 38c8,52 32,96 72,132 40,36 83,54 129,54 39,0 74,-10 105,-30 30,-20 56,-50 77,-91l39 16c-19,45 -47,79 -82,104 -39,27 -86,41 -139,41 -66,0 -122,-22 -170,-67 -49,-46 -73,-105 -73,-177 0,-62 19,-117 59,-163 45,-54 107,-81 184,-81 69,0 126,23 173,70 46,47 69,105 69,173l0 19 -443 0z"/>
  <path id="23" class="fil5 str1" d="M7391 14381c0,-49 18,-88 54,-116 31,-24 68,-36 111,-36 34,0 64,8 90,24 26,16 44,39 55,67 10,-28 28,-51 54,-67 25,-16 55,-24 90,-24 43,0 80,12 110,35 37,28 55,67 55,117l0 325 -42 0 0 -326c0,-38 -13,-67 -39,-86 -22,-17 -50,-25 -84,-25 -35,0 -65,10 -88,32 -24,21 -35,51 -35,89l0 316 -42 0 0 -316c0,-38 -12,-67 -36,-89 -24,-21 -53,-32 -88,-32 -32,0 -60,8 -82,26 -27,20 -41,49 -41,86l0 325 -42 0 0 -325z"/>
  <path id="24" class="fil5 str1" d="M9106 14234c-27,0 -45,13 -54,40l-109 353 -109 -353c-9,-27 -27,-40 -54,-40 -15,0 -28,4 -39,11 -11,8 -19,22 -23,42l-62 419 42 0 63 -412c3,-14 10,-20 19,-20 7,0 13,8 18,24l107 360c5,16 10,28 15,36 5,8 12,12 23,12 9,0 17,-5 23,-13 6,-9 11,-20 15,-35l107 -360c5,-16 11,-24 18,-24 9,0 16,6 19,20l63 412 42 0 -62 -419c-3,-18 -11,-32 -23,-41 -12,-8 -25,-12 -39,-12z"/>
  <path id="25" class="fil5 str1" d="M9751 14706l0 -183 0 -50c0,-57 -17,-106 -53,-145 -36,-39 -83,-59 -141,-59 -57,0 -103,19 -139,59 -36,39 -55,87 -55,145 0,58 19,107 56,146 37,39 83,58 138,58 45,0 83,-12 114,-35 32,-23 54,-53 67,-91l-6 78c-18,30 -43,53 -75,68 -29,13 -62,20 -100,20 -75,0 -134,-26 -178,-77 -38,-47 -57,-104 -57,-174 0,-73 25,-132 76,-177 46,-40 99,-60 159,-60 75,0 135,26 180,79 37,45 56,96 56,154l0 244 -42 0z"/>
  <path id="26" class="fil5 str1" d="M10049 14278c-40,0 -65,6 -77,17 -11,11 -17,37 -17,78l0 333 -42 0 0 -329c0,-54 9,-90 27,-109 17,-18 53,-28 106,-28l138 0 0 38 -135 0z"/>
  <path id="27" class="fil5 str1" d="M10722 14706l0 -183 0 -50c0,-57 -18,-106 -54,-145 -36,-39 -83,-59 -140,-59 -57,0 -104,19 -140,59 -36,39 -54,87 -54,145 0,58 18,107 55,146 38,39 84,58 139,58 44,0 82,-12 114,-35 31,-23 53,-53 66,-91l-6 78c-18,30 -43,53 -75,68 -28,13 -61,20 -99,20 -76,0 -135,-26 -178,-77 -39,-47 -58,-104 -58,-174 0,-73 26,-132 77,-177 45,-40 98,-60 159,-60 75,0 134,26 179,79 38,45 57,96 57,154l0 244 -42 0z"/>
  <path id="28" class="fil5 str1" d="M11114 14240c56,0 99,14 128,42 26,26 39,59 39,100 0,30 -6,55 -19,78 -14,22 -34,37 -61,44 47,14 82,38 106,70 22,29 33,64 33,104 0,67 -15,121 -46,161 -38,50 -98,76 -181,76 -83,0 -144,-24 -185,-70 -35,-41 -53,-99 -53,-173l39 0c0,75 22,130 65,163 33,26 77,39 131,39 47,0 87,-11 120,-34 46,-32 68,-82 68,-150 0,-43 -17,-81 -51,-111 -34,-30 -75,-45 -122,-45l-42 0 6 -38c46,0 83,-11 110,-32 27,-21 41,-46 41,-75 0,-36 -12,-63 -36,-81 -23,-18 -54,-28 -92,-28l-150 0 0 -40 152 0z"/>
  <path id="29" class="fil5 str1" d="M11479 14240l42 0 0 295c0,46 14,82 44,108 26,23 57,34 94,34 38,0 72,-7 103,-22 31,-15 52,-35 62,-63l0 -352 42 0 0 466 -42 0 0 -43c-16,13 -41,25 -75,37 -33,11 -65,17 -95,17 -50,0 -91,-14 -121,-43 -36,-33 -54,-82 -54,-147l0 -287z"/>
  <polygon id="30" class="fil5 str1" points="12008,14706 12008,14240 12050,14240 12050,14448 12360,14448 12360,14240 12402,14240 12402,14706 12360,14706 12360,14486 12050,14486 12050,14706 "/>
  <path id="31" class="fil5 str1" d="M8199 14476l0 2c0,17 14,30 31,30l216 0c17,0 30,-13 30,-29l0 -2c0,-16 -13,-30 -30,-30l-216 0c-17,0 -31,14 -31,29z"/>
  <g>
   <path class="fil6" d="M8036 13736c-250,0 -500,0 -750,0 -500,0 -5321,21 -5321,44 0,23 4821,44 5321,44 250,0 500,0 750,0 500,0 5321,-21 5321,-44 0,-23 -4821,-44 -5321,-44z"/>
  </g>
  <line class="fil7" x1="1965" y1="13780" x2="13357" y2= "13780" />
 </g>
</svg>
